<mxfile host="app.diagrams.net" modified="2021-09-23T12:23:44.426Z" agent="5.0 (X11; Linux x86_64) AppleWebKit/537.36 (KHTML, like Gecko) Chrome/92.0.4515.159 Safari/537.36" etag="A91lM7FYR7iiPChshWP-" version="15.2.9" type="github" pages="3">
  <diagram id="52WwTKLPWRATNTSWdG7g" name="Page-1">
    <mxGraphModel dx="1102" dy="622" grid="1" gridSize="10" guides="1" tooltips="1" connect="1" arrows="1" fold="1" page="1" pageScale="1" pageWidth="827" pageHeight="1169" math="0" shadow="0">
      <root>
        <mxCell id="0" />
        <mxCell id="1" parent="0" />
        <mxCell id="dqREJO1QnEJOQlAXYrGV-15" value="14" style="edgeStyle=none;rounded=0;orthogonalLoop=1;jettySize=auto;html=1;entryX=0;entryY=1;entryDx=0;entryDy=0;strokeWidth=2;strokeColor=#0000CC;" parent="1" source="dqREJO1QnEJOQlAXYrGV-1" target="dqREJO1QnEJOQlAXYrGV-2" edge="1">
          <mxGeometry relative="1" as="geometry" />
        </mxCell>
        <mxCell id="dqREJO1QnEJOQlAXYrGV-16" value="17" style="edgeStyle=none;rounded=0;orthogonalLoop=1;jettySize=auto;html=1;" parent="1" source="dqREJO1QnEJOQlAXYrGV-1" target="dqREJO1QnEJOQlAXYrGV-3" edge="1">
          <mxGeometry relative="1" as="geometry" />
        </mxCell>
        <mxCell id="dqREJO1QnEJOQlAXYrGV-17" value="20" style="edgeStyle=none;rounded=0;orthogonalLoop=1;jettySize=auto;html=1;" parent="1" source="dqREJO1QnEJOQlAXYrGV-1" target="dqREJO1QnEJOQlAXYrGV-4" edge="1">
          <mxGeometry relative="1" as="geometry" />
        </mxCell>
        <mxCell id="dqREJO1QnEJOQlAXYrGV-18" value="22" style="edgeStyle=none;rounded=0;orthogonalLoop=1;jettySize=auto;html=1;entryX=0;entryY=0;entryDx=0;entryDy=0;strokeWidth=2;strokeColor=#0000CC;" parent="1" source="dqREJO1QnEJOQlAXYrGV-1" target="dqREJO1QnEJOQlAXYrGV-5" edge="1">
          <mxGeometry relative="1" as="geometry">
            <mxPoint x="130" y="530" as="targetPoint" />
          </mxGeometry>
        </mxCell>
        <mxCell id="dqREJO1QnEJOQlAXYrGV-1" value="1,0" style="ellipse;whiteSpace=wrap;html=1;aspect=fixed;" parent="1" vertex="1">
          <mxGeometry x="40" y="280" width="30" height="30" as="geometry" />
        </mxCell>
        <mxCell id="dqREJO1QnEJOQlAXYrGV-19" value="14" style="edgeStyle=none;rounded=0;orthogonalLoop=1;jettySize=auto;html=1;entryX=0;entryY=0.5;entryDx=0;entryDy=0;" parent="1" source="dqREJO1QnEJOQlAXYrGV-2" target="dqREJO1QnEJOQlAXYrGV-6" edge="1">
          <mxGeometry relative="1" as="geometry" />
        </mxCell>
        <mxCell id="dqREJO1QnEJOQlAXYrGV-20" value="17" style="edgeStyle=none;rounded=0;orthogonalLoop=1;jettySize=auto;html=1;entryX=0;entryY=0;entryDx=0;entryDy=0;" parent="1" source="dqREJO1QnEJOQlAXYrGV-2" target="dqREJO1QnEJOQlAXYrGV-7" edge="1">
          <mxGeometry x="-0.4067" y="3" relative="1" as="geometry">
            <Array as="points">
              <mxPoint x="270" y="120" />
            </Array>
            <mxPoint as="offset" />
          </mxGeometry>
        </mxCell>
        <mxCell id="dqREJO1QnEJOQlAXYrGV-21" value="20" style="edgeStyle=none;rounded=0;orthogonalLoop=1;jettySize=auto;html=1;" parent="1" source="dqREJO1QnEJOQlAXYrGV-2" target="dqREJO1QnEJOQlAXYrGV-8" edge="1">
          <mxGeometry x="0.283" y="1" relative="1" as="geometry">
            <mxPoint as="offset" />
          </mxGeometry>
        </mxCell>
        <mxCell id="dqREJO1QnEJOQlAXYrGV-22" value="22" style="edgeStyle=none;rounded=0;orthogonalLoop=1;jettySize=auto;html=1;entryX=0;entryY=0;entryDx=0;entryDy=0;strokeWidth=2;strokeColor=#0000CC;" parent="1" source="dqREJO1QnEJOQlAXYrGV-2" target="dqREJO1QnEJOQlAXYrGV-9" edge="1">
          <mxGeometry x="0.2117" y="11" relative="1" as="geometry">
            <mxPoint as="offset" />
          </mxGeometry>
        </mxCell>
        <mxCell id="dqREJO1QnEJOQlAXYrGV-2" value="2,0" style="ellipse;whiteSpace=wrap;html=1;aspect=fixed;" parent="1" vertex="1">
          <mxGeometry x="170" y="50" width="30" height="30" as="geometry" />
        </mxCell>
        <mxCell id="dqREJO1QnEJOQlAXYrGV-23" value="12" style="edgeStyle=none;rounded=0;orthogonalLoop=1;jettySize=auto;html=1;entryX=0;entryY=1;entryDx=0;entryDy=0;" parent="1" source="dqREJO1QnEJOQlAXYrGV-3" target="dqREJO1QnEJOQlAXYrGV-6" edge="1">
          <mxGeometry x="0.3664" y="-3" relative="1" as="geometry">
            <mxPoint as="offset" />
          </mxGeometry>
        </mxCell>
        <mxCell id="dqREJO1QnEJOQlAXYrGV-24" value="16" style="edgeStyle=none;rounded=0;orthogonalLoop=1;jettySize=auto;html=1;entryX=0;entryY=0.5;entryDx=0;entryDy=0;" parent="1" source="dqREJO1QnEJOQlAXYrGV-3" target="dqREJO1QnEJOQlAXYrGV-7" edge="1">
          <mxGeometry x="0.407" y="5" relative="1" as="geometry">
            <mxPoint as="offset" />
          </mxGeometry>
        </mxCell>
        <mxCell id="dqREJO1QnEJOQlAXYrGV-25" value="19" style="edgeStyle=none;rounded=0;orthogonalLoop=1;jettySize=auto;html=1;entryX=0;entryY=0;entryDx=0;entryDy=0;" parent="1" source="dqREJO1QnEJOQlAXYrGV-3" target="dqREJO1QnEJOQlAXYrGV-8" edge="1">
          <mxGeometry x="0.3799" y="1" relative="1" as="geometry">
            <mxPoint as="offset" />
          </mxGeometry>
        </mxCell>
        <mxCell id="dqREJO1QnEJOQlAXYrGV-26" value="22" style="edgeStyle=none;rounded=0;orthogonalLoop=1;jettySize=auto;html=1;" parent="1" source="dqREJO1QnEJOQlAXYrGV-3" target="dqREJO1QnEJOQlAXYrGV-9" edge="1">
          <mxGeometry x="0.3895" y="-1" relative="1" as="geometry">
            <mxPoint as="offset" />
          </mxGeometry>
        </mxCell>
        <mxCell id="dqREJO1QnEJOQlAXYrGV-3" value="2,1" style="ellipse;whiteSpace=wrap;html=1;aspect=fixed;" parent="1" vertex="1">
          <mxGeometry x="170" y="200" width="30" height="30" as="geometry" />
        </mxCell>
        <mxCell id="dqREJO1QnEJOQlAXYrGV-27" value="8" style="edgeStyle=none;rounded=0;orthogonalLoop=1;jettySize=auto;html=1;entryX=0;entryY=1;entryDx=0;entryDy=0;" parent="1" source="dqREJO1QnEJOQlAXYrGV-4" target="dqREJO1QnEJOQlAXYrGV-6" edge="1">
          <mxGeometry x="-0.6853" y="-4" relative="1" as="geometry">
            <mxPoint as="offset" />
          </mxGeometry>
        </mxCell>
        <mxCell id="dqREJO1QnEJOQlAXYrGV-28" value="14" style="edgeStyle=none;rounded=0;orthogonalLoop=1;jettySize=auto;html=1;entryX=0;entryY=1;entryDx=0;entryDy=0;" parent="1" source="dqREJO1QnEJOQlAXYrGV-4" target="dqREJO1QnEJOQlAXYrGV-7" edge="1">
          <mxGeometry x="-0.5981" y="-2" relative="1" as="geometry">
            <mxPoint as="offset" />
          </mxGeometry>
        </mxCell>
        <mxCell id="dqREJO1QnEJOQlAXYrGV-29" value="18" style="edgeStyle=none;rounded=0;orthogonalLoop=1;jettySize=auto;html=1;entryX=0;entryY=0.5;entryDx=0;entryDy=0;" parent="1" source="dqREJO1QnEJOQlAXYrGV-4" target="dqREJO1QnEJOQlAXYrGV-8" edge="1">
          <mxGeometry x="-0.598" relative="1" as="geometry">
            <mxPoint as="offset" />
          </mxGeometry>
        </mxCell>
        <mxCell id="dqREJO1QnEJOQlAXYrGV-30" value="21" style="edgeStyle=none;rounded=0;orthogonalLoop=1;jettySize=auto;html=1;entryX=0;entryY=0;entryDx=0;entryDy=0;" parent="1" source="dqREJO1QnEJOQlAXYrGV-4" target="dqREJO1QnEJOQlAXYrGV-9" edge="1">
          <mxGeometry x="-0.6712" y="-2" relative="1" as="geometry">
            <mxPoint as="offset" />
          </mxGeometry>
        </mxCell>
        <mxCell id="dqREJO1QnEJOQlAXYrGV-4" value="2,2" style="ellipse;whiteSpace=wrap;html=1;aspect=fixed;" parent="1" vertex="1">
          <mxGeometry x="170" y="360" width="30" height="30" as="geometry" />
        </mxCell>
        <mxCell id="dqREJO1QnEJOQlAXYrGV-31" value="2" style="edgeStyle=none;rounded=0;orthogonalLoop=1;jettySize=auto;html=1;entryX=0;entryY=1;entryDx=0;entryDy=0;strokeWidth=2;strokeColor=#0000CC;" parent="1" source="dqREJO1QnEJOQlAXYrGV-5" target="dqREJO1QnEJOQlAXYrGV-6" edge="1">
          <mxGeometry x="-0.6775" y="-5" relative="1" as="geometry">
            <mxPoint as="offset" />
          </mxGeometry>
        </mxCell>
        <mxCell id="dqREJO1QnEJOQlAXYrGV-32" value="10" style="edgeStyle=none;rounded=0;orthogonalLoop=1;jettySize=auto;html=1;entryX=0.5;entryY=1;entryDx=0;entryDy=0;" parent="1" source="dqREJO1QnEJOQlAXYrGV-5" target="dqREJO1QnEJOQlAXYrGV-7" edge="1">
          <mxGeometry x="-0.5834" relative="1" as="geometry">
            <mxPoint as="offset" />
          </mxGeometry>
        </mxCell>
        <mxCell id="dqREJO1QnEJOQlAXYrGV-33" value="16" style="edgeStyle=none;rounded=0;orthogonalLoop=1;jettySize=auto;html=1;entryX=0;entryY=1;entryDx=0;entryDy=0;" parent="1" source="dqREJO1QnEJOQlAXYrGV-5" target="dqREJO1QnEJOQlAXYrGV-8" edge="1">
          <mxGeometry x="-0.608" y="-4" relative="1" as="geometry">
            <mxPoint as="offset" />
          </mxGeometry>
        </mxCell>
        <mxCell id="dqREJO1QnEJOQlAXYrGV-34" value="20" style="edgeStyle=none;rounded=0;orthogonalLoop=1;jettySize=auto;html=1;entryX=0;entryY=0.5;entryDx=0;entryDy=0;" parent="1" source="dqREJO1QnEJOQlAXYrGV-5" target="dqREJO1QnEJOQlAXYrGV-9" edge="1">
          <mxGeometry x="-0.598" relative="1" as="geometry">
            <mxPoint as="offset" />
          </mxGeometry>
        </mxCell>
        <mxCell id="dqREJO1QnEJOQlAXYrGV-5" value="2,3" style="ellipse;whiteSpace=wrap;html=1;aspect=fixed;" parent="1" vertex="1">
          <mxGeometry x="170" y="530" width="30" height="30" as="geometry" />
        </mxCell>
        <mxCell id="dqREJO1QnEJOQlAXYrGV-35" value="7" style="edgeStyle=none;rounded=0;orthogonalLoop=1;jettySize=auto;html=1;entryX=-0.067;entryY=0.267;entryDx=0;entryDy=0;entryPerimeter=0;fontStyle=1;fontSize=15;" parent="1" source="dqREJO1QnEJOQlAXYrGV-6" target="dqREJO1QnEJOQlAXYrGV-10" edge="1">
          <mxGeometry x="-0.2536" y="14" relative="1" as="geometry">
            <mxPoint as="offset" />
          </mxGeometry>
        </mxCell>
        <mxCell id="dqREJO1QnEJOQlAXYrGV-36" value="12" style="edgeStyle=none;rounded=0;orthogonalLoop=1;jettySize=auto;html=1;entryX=0;entryY=0;entryDx=0;entryDy=0;" parent="1" source="dqREJO1QnEJOQlAXYrGV-6" target="dqREJO1QnEJOQlAXYrGV-11" edge="1">
          <mxGeometry x="-0.289" y="-3" relative="1" as="geometry">
            <mxPoint as="offset" />
          </mxGeometry>
        </mxCell>
        <mxCell id="dqREJO1QnEJOQlAXYrGV-37" value="16" style="edgeStyle=none;rounded=0;orthogonalLoop=1;jettySize=auto;html=1;strokeWidth=2;strokeColor=#0000CC;" parent="1" source="dqREJO1QnEJOQlAXYrGV-6" target="dqREJO1QnEJOQlAXYrGV-12" edge="1">
          <mxGeometry relative="1" as="geometry" />
        </mxCell>
        <mxCell id="dqREJO1QnEJOQlAXYrGV-6" value="3,0" style="ellipse;whiteSpace=wrap;html=1;aspect=fixed;" parent="1" vertex="1">
          <mxGeometry x="399" y="50" width="30" height="30" as="geometry" />
        </mxCell>
        <mxCell id="dqREJO1QnEJOQlAXYrGV-38" value="1" style="edgeStyle=none;rounded=0;orthogonalLoop=1;jettySize=auto;html=1;entryX=0;entryY=0.5;entryDx=0;entryDy=0;fontSize=13;" parent="1" source="dqREJO1QnEJOQlAXYrGV-7" target="dqREJO1QnEJOQlAXYrGV-10" edge="1">
          <mxGeometry x="-0.2379" y="-7" relative="1" as="geometry">
            <mxPoint as="offset" />
          </mxGeometry>
        </mxCell>
        <mxCell id="dqREJO1QnEJOQlAXYrGV-39" value="8" style="edgeStyle=none;rounded=0;orthogonalLoop=1;jettySize=auto;html=1;entryX=-0.067;entryY=0.2;entryDx=0;entryDy=0;entryPerimeter=0;fontSize=13;" parent="1" source="dqREJO1QnEJOQlAXYrGV-7" target="dqREJO1QnEJOQlAXYrGV-11" edge="1">
          <mxGeometry x="-0.4491" y="7" relative="1" as="geometry">
            <mxPoint as="offset" />
          </mxGeometry>
        </mxCell>
        <mxCell id="dqREJO1QnEJOQlAXYrGV-40" value="14" style="edgeStyle=none;rounded=0;orthogonalLoop=1;jettySize=auto;html=1;entryX=0;entryY=0;entryDx=0;entryDy=0;fontSize=13;" parent="1" source="dqREJO1QnEJOQlAXYrGV-7" target="dqREJO1QnEJOQlAXYrGV-12" edge="1">
          <mxGeometry x="-0.5048" y="-2" relative="1" as="geometry">
            <mxPoint as="offset" />
          </mxGeometry>
        </mxCell>
        <mxCell id="dqREJO1QnEJOQlAXYrGV-7" value="3,1" style="ellipse;whiteSpace=wrap;html=1;aspect=fixed;" parent="1" vertex="1">
          <mxGeometry x="399" y="200" width="30" height="30" as="geometry" />
        </mxCell>
        <mxCell id="dqREJO1QnEJOQlAXYrGV-41" value="2" style="edgeStyle=none;rounded=0;orthogonalLoop=1;jettySize=auto;html=1;entryX=0;entryY=1;entryDx=0;entryDy=0;fontSize=13;" parent="1" source="dqREJO1QnEJOQlAXYrGV-8" target="dqREJO1QnEJOQlAXYrGV-11" edge="1">
          <mxGeometry x="-0.4408" relative="1" as="geometry">
            <mxPoint x="-1" as="offset" />
          </mxGeometry>
        </mxCell>
        <mxCell id="dqREJO1QnEJOQlAXYrGV-42" value="10" style="edgeStyle=none;rounded=0;orthogonalLoop=1;jettySize=auto;html=1;entryX=0;entryY=0.5;entryDx=0;entryDy=0;fontSize=13;" parent="1" source="dqREJO1QnEJOQlAXYrGV-8" target="dqREJO1QnEJOQlAXYrGV-12" edge="1">
          <mxGeometry x="-0.4663" y="10" relative="1" as="geometry">
            <mxPoint as="offset" />
          </mxGeometry>
        </mxCell>
        <mxCell id="dqREJO1QnEJOQlAXYrGV-8" value="3,2" style="ellipse;whiteSpace=wrap;html=1;aspect=fixed;" parent="1" vertex="1">
          <mxGeometry x="399" y="360" width="30" height="30" as="geometry" />
        </mxCell>
        <mxCell id="dqREJO1QnEJOQlAXYrGV-43" value="4" style="edgeStyle=none;rounded=0;orthogonalLoop=1;jettySize=auto;html=1;entryX=0;entryY=1;entryDx=0;entryDy=0;fontSize=13;strokeWidth=2;strokeColor=#0000CC;" parent="1" source="dqREJO1QnEJOQlAXYrGV-9" target="dqREJO1QnEJOQlAXYrGV-12" edge="1">
          <mxGeometry relative="1" as="geometry" />
        </mxCell>
        <mxCell id="dqREJO1QnEJOQlAXYrGV-9" value="3,3" style="ellipse;whiteSpace=wrap;html=1;aspect=fixed;" parent="1" vertex="1">
          <mxGeometry x="399" y="530" width="30" height="30" as="geometry" />
        </mxCell>
        <mxCell id="dqREJO1QnEJOQlAXYrGV-44" value="11" style="edgeStyle=none;rounded=0;orthogonalLoop=1;jettySize=auto;html=1;entryX=0;entryY=0;entryDx=0;entryDy=0;fontSize=13;" parent="1" source="dqREJO1QnEJOQlAXYrGV-10" target="dqREJO1QnEJOQlAXYrGV-13" edge="1">
          <mxGeometry relative="1" as="geometry" />
        </mxCell>
        <mxCell id="dqREJO1QnEJOQlAXYrGV-10" value="4,0" style="ellipse;whiteSpace=wrap;html=1;aspect=fixed;" parent="1" vertex="1">
          <mxGeometry x="610" y="125" width="30" height="30" as="geometry" />
        </mxCell>
        <mxCell id="dqREJO1QnEJOQlAXYrGV-45" value="7" style="edgeStyle=none;rounded=0;orthogonalLoop=1;jettySize=auto;html=1;entryX=0;entryY=0.5;entryDx=0;entryDy=0;fontSize=13;" parent="1" source="dqREJO1QnEJOQlAXYrGV-11" target="dqREJO1QnEJOQlAXYrGV-13" edge="1">
          <mxGeometry relative="1" as="geometry" />
        </mxCell>
        <mxCell id="dqREJO1QnEJOQlAXYrGV-11" value="4,1" style="ellipse;whiteSpace=wrap;html=1;aspect=fixed;" parent="1" vertex="1">
          <mxGeometry x="610" y="275" width="30" height="30" as="geometry" />
        </mxCell>
        <mxCell id="dqREJO1QnEJOQlAXYrGV-46" value="1" style="edgeStyle=none;rounded=0;orthogonalLoop=1;jettySize=auto;html=1;entryX=0.5;entryY=1;entryDx=0;entryDy=0;fontSize=13;strokeWidth=2;strokeColor=#0000CC;" parent="1" source="dqREJO1QnEJOQlAXYrGV-12" target="dqREJO1QnEJOQlAXYrGV-13" edge="1">
          <mxGeometry relative="1" as="geometry" />
        </mxCell>
        <mxCell id="dqREJO1QnEJOQlAXYrGV-12" value="4,2" style="ellipse;whiteSpace=wrap;html=1;aspect=fixed;" parent="1" vertex="1">
          <mxGeometry x="610" y="435" width="30" height="30" as="geometry" />
        </mxCell>
        <mxCell id="dqREJO1QnEJOQlAXYrGV-13" value="5,0" style="ellipse;whiteSpace=wrap;html=1;aspect=fixed;" parent="1" vertex="1">
          <mxGeometry x="770" y="280" width="30" height="30" as="geometry" />
        </mxCell>
      </root>
    </mxGraphModel>
  </diagram>
  <diagram id="41fpBBKUZ1n3WQSsqW_A" name="Page-2">
    <mxGraphModel dx="1929" dy="622" grid="1" gridSize="10" guides="1" tooltips="1" connect="1" arrows="1" fold="1" page="1" pageScale="1" pageWidth="827" pageHeight="1169" math="0" shadow="0">
      <root>
        <mxCell id="OKgCSa7Ib3VZEgdTsjkK-0" />
        <mxCell id="OKgCSa7Ib3VZEgdTsjkK-1" parent="OKgCSa7Ib3VZEgdTsjkK-0" />
        <mxCell id="OKgCSa7Ib3VZEgdTsjkK-7" value="1" style="edgeStyle=none;rounded=0;orthogonalLoop=1;jettySize=auto;html=1;entryX=0;entryY=1;entryDx=0;entryDy=0;fontSize=13;strokeColor=#000000;strokeWidth=1;" parent="OKgCSa7Ib3VZEgdTsjkK-1" source="OKgCSa7Ib3VZEgdTsjkK-2" target="OKgCSa7Ib3VZEgdTsjkK-3" edge="1">
          <mxGeometry relative="1" as="geometry" />
        </mxCell>
        <mxCell id="OKgCSa7Ib3VZEgdTsjkK-8" value="2" style="edgeStyle=none;rounded=0;orthogonalLoop=1;jettySize=auto;html=1;entryX=0;entryY=0;entryDx=0;entryDy=0;fontSize=13;strokeColor=#000000;strokeWidth=1;" parent="OKgCSa7Ib3VZEgdTsjkK-1" source="OKgCSa7Ib3VZEgdTsjkK-2" target="OKgCSa7Ib3VZEgdTsjkK-5" edge="1">
          <mxGeometry relative="1" as="geometry" />
        </mxCell>
        <mxCell id="OKgCSa7Ib3VZEgdTsjkK-2" value="A" style="ellipse;whiteSpace=wrap;html=1;aspect=fixed;fontSize=13;" parent="OKgCSa7Ib3VZEgdTsjkK-1" vertex="1">
          <mxGeometry x="-200" y="140" width="30" height="30" as="geometry" />
        </mxCell>
        <mxCell id="OKgCSa7Ib3VZEgdTsjkK-9" value="2" style="edgeStyle=none;rounded=0;orthogonalLoop=1;jettySize=auto;html=1;entryX=0.5;entryY=0;entryDx=0;entryDy=0;fontSize=13;strokeColor=#000000;strokeWidth=1;" parent="OKgCSa7Ib3VZEgdTsjkK-1" source="OKgCSa7Ib3VZEgdTsjkK-3" target="OKgCSa7Ib3VZEgdTsjkK-5" edge="1">
          <mxGeometry relative="1" as="geometry" />
        </mxCell>
        <mxCell id="OKgCSa7Ib3VZEgdTsjkK-10" value="4" style="edgeStyle=none;rounded=0;orthogonalLoop=1;jettySize=auto;html=1;fontSize=13;strokeColor=#000000;strokeWidth=1;" parent="OKgCSa7Ib3VZEgdTsjkK-1" source="OKgCSa7Ib3VZEgdTsjkK-3" target="OKgCSa7Ib3VZEgdTsjkK-6" edge="1">
          <mxGeometry relative="1" as="geometry" />
        </mxCell>
        <mxCell id="OKgCSa7Ib3VZEgdTsjkK-3" value="B" style="ellipse;whiteSpace=wrap;html=1;aspect=fixed;fontSize=13;" parent="OKgCSa7Ib3VZEgdTsjkK-1" vertex="1">
          <mxGeometry x="-130" y="70" width="30" height="30" as="geometry" />
        </mxCell>
        <mxCell id="OKgCSa7Ib3VZEgdTsjkK-13" value="2" style="edgeStyle=none;rounded=0;orthogonalLoop=1;jettySize=auto;html=1;fontSize=13;strokeColor=#000000;strokeWidth=1;entryX=1;entryY=0.5;entryDx=0;entryDy=0;" parent="OKgCSa7Ib3VZEgdTsjkK-1" source="OKgCSa7Ib3VZEgdTsjkK-4" target="OKgCSa7Ib3VZEgdTsjkK-3" edge="1">
          <mxGeometry relative="1" as="geometry">
            <mxPoint x="-60" y="84" as="targetPoint" />
          </mxGeometry>
        </mxCell>
        <mxCell id="OKgCSa7Ib3VZEgdTsjkK-14" value="9" style="edgeStyle=none;rounded=0;orthogonalLoop=1;jettySize=auto;html=1;fontSize=13;strokeColor=#000000;strokeWidth=1;" parent="OKgCSa7Ib3VZEgdTsjkK-1" source="OKgCSa7Ib3VZEgdTsjkK-4" target="OKgCSa7Ib3VZEgdTsjkK-2" edge="1">
          <mxGeometry relative="1" as="geometry">
            <Array as="points">
              <mxPoint x="-171" y="20" />
            </Array>
          </mxGeometry>
        </mxCell>
        <mxCell id="OKgCSa7Ib3VZEgdTsjkK-4" value="C" style="ellipse;whiteSpace=wrap;html=1;aspect=fixed;fontSize=13;" parent="OKgCSa7Ib3VZEgdTsjkK-1" vertex="1">
          <mxGeometry x="-10" y="70" width="30" height="30" as="geometry" />
        </mxCell>
        <mxCell id="OKgCSa7Ib3VZEgdTsjkK-11" value="1" style="edgeStyle=none;rounded=0;orthogonalLoop=1;jettySize=auto;html=1;fontSize=13;strokeColor=#000000;strokeWidth=1;" parent="OKgCSa7Ib3VZEgdTsjkK-1" source="OKgCSa7Ib3VZEgdTsjkK-5" target="OKgCSa7Ib3VZEgdTsjkK-6" edge="1">
          <mxGeometry relative="1" as="geometry" />
        </mxCell>
        <mxCell id="OKgCSa7Ib3VZEgdTsjkK-5" value="E" style="ellipse;whiteSpace=wrap;html=1;aspect=fixed;fontSize=13;" parent="OKgCSa7Ib3VZEgdTsjkK-1" vertex="1">
          <mxGeometry x="-130" y="210" width="30" height="30" as="geometry" />
        </mxCell>
        <mxCell id="OKgCSa7Ib3VZEgdTsjkK-12" value="1" style="edgeStyle=none;rounded=0;orthogonalLoop=1;jettySize=auto;html=1;fontSize=13;strokeColor=#000000;strokeWidth=1;" parent="OKgCSa7Ib3VZEgdTsjkK-1" source="OKgCSa7Ib3VZEgdTsjkK-6" target="OKgCSa7Ib3VZEgdTsjkK-4" edge="1">
          <mxGeometry relative="1" as="geometry" />
        </mxCell>
        <mxCell id="OKgCSa7Ib3VZEgdTsjkK-15" value="2" style="edgeStyle=none;rounded=0;orthogonalLoop=1;jettySize=auto;html=1;fontSize=13;strokeColor=#000000;strokeWidth=1;entryX=0.5;entryY=1;entryDx=0;entryDy=0;" parent="OKgCSa7Ib3VZEgdTsjkK-1" source="OKgCSa7Ib3VZEgdTsjkK-6" target="OKgCSa7Ib3VZEgdTsjkK-2" edge="1">
          <mxGeometry relative="1" as="geometry">
            <mxPoint x="-174" y="190" as="targetPoint" />
            <Array as="points">
              <mxPoint x="-160" y="280" />
            </Array>
          </mxGeometry>
        </mxCell>
        <mxCell id="OKgCSa7Ib3VZEgdTsjkK-6" value="D" style="ellipse;whiteSpace=wrap;html=1;aspect=fixed;fontSize=13;" parent="OKgCSa7Ib3VZEgdTsjkK-1" vertex="1">
          <mxGeometry x="-10" y="210" width="30" height="30" as="geometry" />
        </mxCell>
        <mxCell id="OKgCSa7Ib3VZEgdTsjkK-16" value="1" style="edgeStyle=none;rounded=0;orthogonalLoop=1;jettySize=auto;html=1;entryX=0;entryY=1;entryDx=0;entryDy=0;fontSize=13;strokeColor=#000000;strokeWidth=1;" parent="OKgCSa7Ib3VZEgdTsjkK-1" source="OKgCSa7Ib3VZEgdTsjkK-18" target="OKgCSa7Ib3VZEgdTsjkK-21" edge="1">
          <mxGeometry relative="1" as="geometry" />
        </mxCell>
        <mxCell id="OKgCSa7Ib3VZEgdTsjkK-17" value="2" style="edgeStyle=none;rounded=0;orthogonalLoop=1;jettySize=auto;html=1;entryX=0;entryY=0;entryDx=0;entryDy=0;fontSize=13;strokeColor=#000000;strokeWidth=1;" parent="OKgCSa7Ib3VZEgdTsjkK-1" source="OKgCSa7Ib3VZEgdTsjkK-18" target="OKgCSa7Ib3VZEgdTsjkK-26" edge="1">
          <mxGeometry relative="1" as="geometry" />
        </mxCell>
        <mxCell id="OKgCSa7Ib3VZEgdTsjkK-18" value="A" style="ellipse;whiteSpace=wrap;html=1;aspect=fixed;fontSize=13;" parent="OKgCSa7Ib3VZEgdTsjkK-1" vertex="1">
          <mxGeometry x="90" y="140" width="30" height="30" as="geometry" />
        </mxCell>
        <mxCell id="OKgCSa7Ib3VZEgdTsjkK-19" value="2" style="edgeStyle=none;rounded=0;orthogonalLoop=1;jettySize=auto;html=1;entryX=0.5;entryY=0;entryDx=0;entryDy=0;fontSize=13;strokeColor=#000000;strokeWidth=1;" parent="OKgCSa7Ib3VZEgdTsjkK-1" source="OKgCSa7Ib3VZEgdTsjkK-21" target="OKgCSa7Ib3VZEgdTsjkK-26" edge="1">
          <mxGeometry relative="1" as="geometry" />
        </mxCell>
        <mxCell id="OKgCSa7Ib3VZEgdTsjkK-20" value="4" style="edgeStyle=none;rounded=0;orthogonalLoop=1;jettySize=auto;html=1;fontSize=13;strokeColor=#000000;strokeWidth=1;" parent="OKgCSa7Ib3VZEgdTsjkK-1" source="OKgCSa7Ib3VZEgdTsjkK-21" target="OKgCSa7Ib3VZEgdTsjkK-29" edge="1">
          <mxGeometry relative="1" as="geometry" />
        </mxCell>
        <mxCell id="OKgCSa7Ib3VZEgdTsjkK-21" value="B" style="ellipse;whiteSpace=wrap;html=1;aspect=fixed;fontSize=13;" parent="OKgCSa7Ib3VZEgdTsjkK-1" vertex="1">
          <mxGeometry x="160" y="70" width="30" height="30" as="geometry" />
        </mxCell>
        <mxCell id="OKgCSa7Ib3VZEgdTsjkK-22" value="2" style="edgeStyle=none;rounded=0;orthogonalLoop=1;jettySize=auto;html=1;fontSize=13;strokeColor=#000000;strokeWidth=1;entryX=1;entryY=0.5;entryDx=0;entryDy=0;" parent="OKgCSa7Ib3VZEgdTsjkK-1" source="OKgCSa7Ib3VZEgdTsjkK-24" target="OKgCSa7Ib3VZEgdTsjkK-21" edge="1">
          <mxGeometry relative="1" as="geometry">
            <mxPoint x="230" y="84" as="targetPoint" />
          </mxGeometry>
        </mxCell>
        <mxCell id="OKgCSa7Ib3VZEgdTsjkK-23" value="9" style="edgeStyle=none;rounded=0;orthogonalLoop=1;jettySize=auto;html=1;fontSize=13;strokeColor=#000000;strokeWidth=1;" parent="OKgCSa7Ib3VZEgdTsjkK-1" source="OKgCSa7Ib3VZEgdTsjkK-24" target="OKgCSa7Ib3VZEgdTsjkK-18" edge="1">
          <mxGeometry relative="1" as="geometry">
            <Array as="points">
              <mxPoint x="119" y="20" />
            </Array>
          </mxGeometry>
        </mxCell>
        <mxCell id="OKgCSa7Ib3VZEgdTsjkK-24" value="C" style="ellipse;whiteSpace=wrap;html=1;aspect=fixed;fontSize=13;" parent="OKgCSa7Ib3VZEgdTsjkK-1" vertex="1">
          <mxGeometry x="280" y="70" width="30" height="30" as="geometry" />
        </mxCell>
        <mxCell id="OKgCSa7Ib3VZEgdTsjkK-25" value="1" style="edgeStyle=none;rounded=0;orthogonalLoop=1;jettySize=auto;html=1;fontSize=13;strokeColor=#000000;strokeWidth=1;" parent="OKgCSa7Ib3VZEgdTsjkK-1" source="OKgCSa7Ib3VZEgdTsjkK-26" target="OKgCSa7Ib3VZEgdTsjkK-29" edge="1">
          <mxGeometry relative="1" as="geometry" />
        </mxCell>
        <mxCell id="OKgCSa7Ib3VZEgdTsjkK-26" value="E" style="ellipse;whiteSpace=wrap;html=1;aspect=fixed;fontSize=13;" parent="OKgCSa7Ib3VZEgdTsjkK-1" vertex="1">
          <mxGeometry x="160" y="210" width="30" height="30" as="geometry" />
        </mxCell>
        <mxCell id="OKgCSa7Ib3VZEgdTsjkK-27" value="1" style="edgeStyle=none;rounded=0;orthogonalLoop=1;jettySize=auto;html=1;fontSize=13;strokeColor=#000000;strokeWidth=1;" parent="OKgCSa7Ib3VZEgdTsjkK-1" source="OKgCSa7Ib3VZEgdTsjkK-29" target="OKgCSa7Ib3VZEgdTsjkK-24" edge="1">
          <mxGeometry relative="1" as="geometry" />
        </mxCell>
        <mxCell id="OKgCSa7Ib3VZEgdTsjkK-28" value="2" style="edgeStyle=none;rounded=0;orthogonalLoop=1;jettySize=auto;html=1;fontSize=13;strokeColor=#000000;strokeWidth=1;entryX=0.5;entryY=1;entryDx=0;entryDy=0;" parent="OKgCSa7Ib3VZEgdTsjkK-1" source="OKgCSa7Ib3VZEgdTsjkK-29" target="OKgCSa7Ib3VZEgdTsjkK-18" edge="1">
          <mxGeometry relative="1" as="geometry">
            <mxPoint x="116" y="190" as="targetPoint" />
            <Array as="points">
              <mxPoint x="130" y="280" />
            </Array>
          </mxGeometry>
        </mxCell>
        <mxCell id="OKgCSa7Ib3VZEgdTsjkK-29" value="D" style="ellipse;whiteSpace=wrap;html=1;aspect=fixed;fontSize=13;" parent="OKgCSa7Ib3VZEgdTsjkK-1" vertex="1">
          <mxGeometry x="280" y="210" width="30" height="30" as="geometry" />
        </mxCell>
        <mxCell id="OKgCSa7Ib3VZEgdTsjkK-114" value="0" style="text;html=1;strokeColor=none;fillColor=none;align=center;verticalAlign=middle;whiteSpace=wrap;rounded=0;fontSize=13;" parent="OKgCSa7Ib3VZEgdTsjkK-1" vertex="1">
          <mxGeometry x="30" y="180" width="40" height="20" as="geometry" />
        </mxCell>
        <mxCell id="OKgCSa7Ib3VZEgdTsjkK-171" value="OO" style="text;html=1;strokeColor=none;fillColor=none;align=center;verticalAlign=middle;whiteSpace=wrap;rounded=0;fontSize=13;fontStyle=1" parent="OKgCSa7Ib3VZEgdTsjkK-1" vertex="1">
          <mxGeometry x="155" y="50" width="40" height="20" as="geometry" />
        </mxCell>
        <mxCell id="OKgCSa7Ib3VZEgdTsjkK-172" value="OO" style="text;html=1;strokeColor=none;fillColor=none;align=center;verticalAlign=middle;whiteSpace=wrap;rounded=0;fontSize=13;fontStyle=1" parent="OKgCSa7Ib3VZEgdTsjkK-1" vertex="1">
          <mxGeometry x="280" y="50" width="40" height="20" as="geometry" />
        </mxCell>
        <mxCell id="OKgCSa7Ib3VZEgdTsjkK-173" value="OO" style="text;html=1;strokeColor=none;fillColor=none;align=center;verticalAlign=middle;whiteSpace=wrap;rounded=0;fontSize=13;fontStyle=1" parent="OKgCSa7Ib3VZEgdTsjkK-1" vertex="1">
          <mxGeometry x="155" y="240" width="40" height="20" as="geometry" />
        </mxCell>
        <mxCell id="OKgCSa7Ib3VZEgdTsjkK-174" value="OO" style="text;html=1;strokeColor=none;fillColor=none;align=center;verticalAlign=middle;whiteSpace=wrap;rounded=0;fontSize=13;fontStyle=1" parent="OKgCSa7Ib3VZEgdTsjkK-1" vertex="1">
          <mxGeometry x="270" y="240" width="40" height="20" as="geometry" />
        </mxCell>
        <mxCell id="OKgCSa7Ib3VZEgdTsjkK-247" value="1" style="edgeStyle=none;rounded=0;orthogonalLoop=1;jettySize=auto;html=1;entryX=0;entryY=1;entryDx=0;entryDy=0;fontSize=13;strokeColor=#000000;strokeWidth=1;" parent="OKgCSa7Ib3VZEgdTsjkK-1" source="OKgCSa7Ib3VZEgdTsjkK-249" target="OKgCSa7Ib3VZEgdTsjkK-252" edge="1">
          <mxGeometry relative="1" as="geometry" />
        </mxCell>
        <mxCell id="OKgCSa7Ib3VZEgdTsjkK-248" value="2" style="edgeStyle=none;rounded=0;orthogonalLoop=1;jettySize=auto;html=1;entryX=0;entryY=0;entryDx=0;entryDy=0;fontSize=13;strokeColor=#000000;strokeWidth=1;" parent="OKgCSa7Ib3VZEgdTsjkK-1" source="OKgCSa7Ib3VZEgdTsjkK-249" target="OKgCSa7Ib3VZEgdTsjkK-257" edge="1">
          <mxGeometry relative="1" as="geometry" />
        </mxCell>
        <mxCell id="OKgCSa7Ib3VZEgdTsjkK-249" value="A" style="ellipse;whiteSpace=wrap;html=1;aspect=fixed;fontSize=13;" parent="OKgCSa7Ib3VZEgdTsjkK-1" vertex="1">
          <mxGeometry x="390" y="130" width="30" height="30" as="geometry" />
        </mxCell>
        <mxCell id="OKgCSa7Ib3VZEgdTsjkK-250" value="2" style="edgeStyle=none;rounded=0;orthogonalLoop=1;jettySize=auto;html=1;entryX=0.5;entryY=0;entryDx=0;entryDy=0;fontSize=13;strokeColor=#000000;strokeWidth=1;" parent="OKgCSa7Ib3VZEgdTsjkK-1" source="OKgCSa7Ib3VZEgdTsjkK-252" target="OKgCSa7Ib3VZEgdTsjkK-257" edge="1">
          <mxGeometry relative="1" as="geometry" />
        </mxCell>
        <mxCell id="OKgCSa7Ib3VZEgdTsjkK-251" value="4" style="edgeStyle=none;rounded=0;orthogonalLoop=1;jettySize=auto;html=1;fontSize=13;strokeColor=#000000;strokeWidth=1;" parent="OKgCSa7Ib3VZEgdTsjkK-1" source="OKgCSa7Ib3VZEgdTsjkK-252" target="OKgCSa7Ib3VZEgdTsjkK-260" edge="1">
          <mxGeometry relative="1" as="geometry" />
        </mxCell>
        <mxCell id="OKgCSa7Ib3VZEgdTsjkK-252" value="B" style="ellipse;whiteSpace=wrap;html=1;aspect=fixed;fontSize=13;" parent="OKgCSa7Ib3VZEgdTsjkK-1" vertex="1">
          <mxGeometry x="460" y="60" width="30" height="30" as="geometry" />
        </mxCell>
        <mxCell id="OKgCSa7Ib3VZEgdTsjkK-253" value="2" style="edgeStyle=none;rounded=0;orthogonalLoop=1;jettySize=auto;html=1;fontSize=13;strokeColor=#000000;strokeWidth=1;entryX=1;entryY=0.5;entryDx=0;entryDy=0;" parent="OKgCSa7Ib3VZEgdTsjkK-1" source="OKgCSa7Ib3VZEgdTsjkK-255" target="OKgCSa7Ib3VZEgdTsjkK-252" edge="1">
          <mxGeometry relative="1" as="geometry">
            <mxPoint x="530" y="74" as="targetPoint" />
          </mxGeometry>
        </mxCell>
        <mxCell id="OKgCSa7Ib3VZEgdTsjkK-254" value="9" style="edgeStyle=none;rounded=0;orthogonalLoop=1;jettySize=auto;html=1;fontSize=13;strokeColor=#000000;strokeWidth=1;" parent="OKgCSa7Ib3VZEgdTsjkK-1" source="OKgCSa7Ib3VZEgdTsjkK-255" target="OKgCSa7Ib3VZEgdTsjkK-249" edge="1">
          <mxGeometry relative="1" as="geometry">
            <Array as="points">
              <mxPoint x="419" y="10" />
            </Array>
          </mxGeometry>
        </mxCell>
        <mxCell id="OKgCSa7Ib3VZEgdTsjkK-255" value="C" style="ellipse;whiteSpace=wrap;html=1;aspect=fixed;fontSize=13;" parent="OKgCSa7Ib3VZEgdTsjkK-1" vertex="1">
          <mxGeometry x="580" y="60" width="30" height="30" as="geometry" />
        </mxCell>
        <mxCell id="OKgCSa7Ib3VZEgdTsjkK-256" value="1" style="edgeStyle=none;rounded=0;orthogonalLoop=1;jettySize=auto;html=1;fontSize=13;strokeColor=#000000;strokeWidth=1;" parent="OKgCSa7Ib3VZEgdTsjkK-1" source="OKgCSa7Ib3VZEgdTsjkK-257" target="OKgCSa7Ib3VZEgdTsjkK-260" edge="1">
          <mxGeometry relative="1" as="geometry" />
        </mxCell>
        <mxCell id="OKgCSa7Ib3VZEgdTsjkK-257" value="E" style="ellipse;whiteSpace=wrap;html=1;aspect=fixed;fontSize=13;" parent="OKgCSa7Ib3VZEgdTsjkK-1" vertex="1">
          <mxGeometry x="460" y="200" width="30" height="30" as="geometry" />
        </mxCell>
        <mxCell id="OKgCSa7Ib3VZEgdTsjkK-258" value="1" style="edgeStyle=none;rounded=0;orthogonalLoop=1;jettySize=auto;html=1;fontSize=13;strokeColor=#000000;strokeWidth=1;" parent="OKgCSa7Ib3VZEgdTsjkK-1" source="OKgCSa7Ib3VZEgdTsjkK-260" target="OKgCSa7Ib3VZEgdTsjkK-255" edge="1">
          <mxGeometry relative="1" as="geometry" />
        </mxCell>
        <mxCell id="OKgCSa7Ib3VZEgdTsjkK-259" value="2" style="edgeStyle=none;rounded=0;orthogonalLoop=1;jettySize=auto;html=1;fontSize=13;strokeColor=#000000;strokeWidth=1;entryX=0.5;entryY=1;entryDx=0;entryDy=0;" parent="OKgCSa7Ib3VZEgdTsjkK-1" source="OKgCSa7Ib3VZEgdTsjkK-260" target="OKgCSa7Ib3VZEgdTsjkK-249" edge="1">
          <mxGeometry relative="1" as="geometry">
            <mxPoint x="416" y="180" as="targetPoint" />
            <Array as="points">
              <mxPoint x="430" y="270" />
            </Array>
          </mxGeometry>
        </mxCell>
        <mxCell id="OKgCSa7Ib3VZEgdTsjkK-260" value="D" style="ellipse;whiteSpace=wrap;html=1;aspect=fixed;fontSize=13;" parent="OKgCSa7Ib3VZEgdTsjkK-1" vertex="1">
          <mxGeometry x="580" y="200" width="30" height="30" as="geometry" />
        </mxCell>
        <mxCell id="OKgCSa7Ib3VZEgdTsjkK-261" value="1,A" style="text;html=1;strokeColor=none;fillColor=none;align=center;verticalAlign=middle;whiteSpace=wrap;rounded=0;fontSize=13;fontStyle=1" parent="OKgCSa7Ib3VZEgdTsjkK-1" vertex="1">
          <mxGeometry x="455" y="40" width="40" height="20" as="geometry" />
        </mxCell>
        <mxCell id="OKgCSa7Ib3VZEgdTsjkK-262" value="5,D" style="text;html=1;strokeColor=none;fillColor=none;align=center;verticalAlign=middle;whiteSpace=wrap;rounded=0;fontSize=13;fontStyle=1" parent="OKgCSa7Ib3VZEgdTsjkK-1" vertex="1">
          <mxGeometry x="580" y="40" width="40" height="20" as="geometry" />
        </mxCell>
        <mxCell id="OKgCSa7Ib3VZEgdTsjkK-263" value="3,B" style="text;html=1;strokeColor=none;fillColor=none;align=center;verticalAlign=middle;whiteSpace=wrap;rounded=0;fontSize=13;fontStyle=1" parent="OKgCSa7Ib3VZEgdTsjkK-1" vertex="1">
          <mxGeometry x="455" y="230" width="40" height="20" as="geometry" />
        </mxCell>
        <mxCell id="OKgCSa7Ib3VZEgdTsjkK-264" value="4,E" style="text;html=1;strokeColor=none;fillColor=none;align=center;verticalAlign=middle;whiteSpace=wrap;rounded=0;fontSize=13;fontStyle=1" parent="OKgCSa7Ib3VZEgdTsjkK-1" vertex="1">
          <mxGeometry x="570" y="230" width="40" height="20" as="geometry" />
        </mxCell>
        <mxCell id="OKgCSa7Ib3VZEgdTsjkK-265" value="0" style="text;html=1;strokeColor=none;fillColor=none;align=center;verticalAlign=middle;whiteSpace=wrap;rounded=0;fontSize=13;" parent="OKgCSa7Ib3VZEgdTsjkK-1" vertex="1">
          <mxGeometry x="300" y="180" width="40" height="20" as="geometry" />
        </mxCell>
        <mxCell id="OKgCSa7Ib3VZEgdTsjkK-302" value="1" style="edgeStyle=none;rounded=0;orthogonalLoop=1;jettySize=auto;html=1;entryX=0;entryY=1;entryDx=0;entryDy=0;fontSize=13;strokeColor=#000000;strokeWidth=1;" parent="OKgCSa7Ib3VZEgdTsjkK-1" source="OKgCSa7Ib3VZEgdTsjkK-304" target="OKgCSa7Ib3VZEgdTsjkK-307" edge="1">
          <mxGeometry relative="1" as="geometry" />
        </mxCell>
        <mxCell id="OKgCSa7Ib3VZEgdTsjkK-303" value="2" style="edgeStyle=none;rounded=0;orthogonalLoop=1;jettySize=auto;html=1;entryX=0;entryY=0;entryDx=0;entryDy=0;fontSize=13;strokeColor=#000000;strokeWidth=1;" parent="OKgCSa7Ib3VZEgdTsjkK-1" source="OKgCSa7Ib3VZEgdTsjkK-304" target="OKgCSa7Ib3VZEgdTsjkK-312" edge="1">
          <mxGeometry relative="1" as="geometry" />
        </mxCell>
        <mxCell id="OKgCSa7Ib3VZEgdTsjkK-304" value="A" style="ellipse;whiteSpace=wrap;html=1;aspect=fixed;fontSize=13;" parent="OKgCSa7Ib3VZEgdTsjkK-1" vertex="1">
          <mxGeometry x="380" y="760" width="30" height="30" as="geometry" />
        </mxCell>
        <mxCell id="OKgCSa7Ib3VZEgdTsjkK-305" value="2" style="edgeStyle=none;rounded=0;orthogonalLoop=1;jettySize=auto;html=1;entryX=0.5;entryY=0;entryDx=0;entryDy=0;fontSize=13;strokeColor=#000000;strokeWidth=1;" parent="OKgCSa7Ib3VZEgdTsjkK-1" source="OKgCSa7Ib3VZEgdTsjkK-307" target="OKgCSa7Ib3VZEgdTsjkK-312" edge="1">
          <mxGeometry relative="1" as="geometry" />
        </mxCell>
        <mxCell id="OKgCSa7Ib3VZEgdTsjkK-306" value="4" style="edgeStyle=none;rounded=0;orthogonalLoop=1;jettySize=auto;html=1;fontSize=13;strokeColor=#000000;strokeWidth=1;" parent="OKgCSa7Ib3VZEgdTsjkK-1" source="OKgCSa7Ib3VZEgdTsjkK-307" target="OKgCSa7Ib3VZEgdTsjkK-315" edge="1">
          <mxGeometry relative="1" as="geometry" />
        </mxCell>
        <mxCell id="OKgCSa7Ib3VZEgdTsjkK-307" value="B" style="ellipse;whiteSpace=wrap;html=1;aspect=fixed;fontSize=13;" parent="OKgCSa7Ib3VZEgdTsjkK-1" vertex="1">
          <mxGeometry x="450" y="690" width="30" height="30" as="geometry" />
        </mxCell>
        <mxCell id="OKgCSa7Ib3VZEgdTsjkK-308" value="2" style="edgeStyle=none;rounded=0;orthogonalLoop=1;jettySize=auto;html=1;fontSize=13;strokeColor=#000000;strokeWidth=1;entryX=1;entryY=0.5;entryDx=0;entryDy=0;" parent="OKgCSa7Ib3VZEgdTsjkK-1" source="OKgCSa7Ib3VZEgdTsjkK-310" target="OKgCSa7Ib3VZEgdTsjkK-307" edge="1">
          <mxGeometry relative="1" as="geometry">
            <mxPoint x="520" y="704" as="targetPoint" />
          </mxGeometry>
        </mxCell>
        <mxCell id="OKgCSa7Ib3VZEgdTsjkK-309" value="9" style="edgeStyle=none;rounded=0;orthogonalLoop=1;jettySize=auto;html=1;fontSize=13;strokeColor=#000000;strokeWidth=1;" parent="OKgCSa7Ib3VZEgdTsjkK-1" source="OKgCSa7Ib3VZEgdTsjkK-310" target="OKgCSa7Ib3VZEgdTsjkK-304" edge="1">
          <mxGeometry relative="1" as="geometry">
            <Array as="points">
              <mxPoint x="409" y="640" />
            </Array>
          </mxGeometry>
        </mxCell>
        <mxCell id="OKgCSa7Ib3VZEgdTsjkK-310" value="C" style="ellipse;whiteSpace=wrap;html=1;aspect=fixed;fontSize=13;" parent="OKgCSa7Ib3VZEgdTsjkK-1" vertex="1">
          <mxGeometry x="570" y="690" width="30" height="30" as="geometry" />
        </mxCell>
        <mxCell id="OKgCSa7Ib3VZEgdTsjkK-311" value="1" style="edgeStyle=none;rounded=0;orthogonalLoop=1;jettySize=auto;html=1;fontSize=13;strokeColor=#000000;strokeWidth=1;" parent="OKgCSa7Ib3VZEgdTsjkK-1" source="OKgCSa7Ib3VZEgdTsjkK-312" target="OKgCSa7Ib3VZEgdTsjkK-315" edge="1">
          <mxGeometry relative="1" as="geometry" />
        </mxCell>
        <mxCell id="OKgCSa7Ib3VZEgdTsjkK-312" value="E" style="ellipse;whiteSpace=wrap;html=1;aspect=fixed;fontSize=13;" parent="OKgCSa7Ib3VZEgdTsjkK-1" vertex="1">
          <mxGeometry x="450" y="830" width="30" height="30" as="geometry" />
        </mxCell>
        <mxCell id="OKgCSa7Ib3VZEgdTsjkK-313" value="1" style="edgeStyle=none;rounded=0;orthogonalLoop=1;jettySize=auto;html=1;fontSize=13;strokeColor=#000000;strokeWidth=1;" parent="OKgCSa7Ib3VZEgdTsjkK-1" source="OKgCSa7Ib3VZEgdTsjkK-315" target="OKgCSa7Ib3VZEgdTsjkK-310" edge="1">
          <mxGeometry relative="1" as="geometry" />
        </mxCell>
        <mxCell id="OKgCSa7Ib3VZEgdTsjkK-314" value="2" style="edgeStyle=none;rounded=0;orthogonalLoop=1;jettySize=auto;html=1;fontSize=13;strokeColor=#000000;strokeWidth=1;entryX=0.5;entryY=1;entryDx=0;entryDy=0;" parent="OKgCSa7Ib3VZEgdTsjkK-1" source="OKgCSa7Ib3VZEgdTsjkK-315" target="OKgCSa7Ib3VZEgdTsjkK-304" edge="1">
          <mxGeometry relative="1" as="geometry">
            <mxPoint x="406" y="810" as="targetPoint" />
            <Array as="points">
              <mxPoint x="420" y="900" />
            </Array>
          </mxGeometry>
        </mxCell>
        <mxCell id="OKgCSa7Ib3VZEgdTsjkK-315" value="D" style="ellipse;whiteSpace=wrap;html=1;aspect=fixed;fontSize=13;" parent="OKgCSa7Ib3VZEgdTsjkK-1" vertex="1">
          <mxGeometry x="570" y="830" width="30" height="30" as="geometry" />
        </mxCell>
        <mxCell id="OKgCSa7Ib3VZEgdTsjkK-316" value="1,A" style="text;html=1;strokeColor=none;fillColor=none;align=center;verticalAlign=middle;whiteSpace=wrap;rounded=0;fontSize=13;fontStyle=1" parent="OKgCSa7Ib3VZEgdTsjkK-1" vertex="1">
          <mxGeometry x="445" y="670" width="40" height="20" as="geometry" />
        </mxCell>
        <mxCell id="OKgCSa7Ib3VZEgdTsjkK-317" value="OO" style="text;html=1;strokeColor=none;fillColor=none;align=center;verticalAlign=middle;whiteSpace=wrap;rounded=0;fontSize=13;fontStyle=1" parent="OKgCSa7Ib3VZEgdTsjkK-1" vertex="1">
          <mxGeometry x="570" y="670" width="40" height="20" as="geometry" />
        </mxCell>
        <mxCell id="OKgCSa7Ib3VZEgdTsjkK-318" value="OO" style="text;html=1;strokeColor=none;fillColor=none;align=center;verticalAlign=middle;whiteSpace=wrap;rounded=0;fontSize=13;fontStyle=1" parent="OKgCSa7Ib3VZEgdTsjkK-1" vertex="1">
          <mxGeometry x="445" y="860" width="40" height="20" as="geometry" />
        </mxCell>
        <mxCell id="OKgCSa7Ib3VZEgdTsjkK-319" value="OO" style="text;html=1;strokeColor=none;fillColor=none;align=center;verticalAlign=middle;whiteSpace=wrap;rounded=0;fontSize=13;fontStyle=1" parent="OKgCSa7Ib3VZEgdTsjkK-1" vertex="1">
          <mxGeometry x="560" y="860" width="40" height="20" as="geometry" />
        </mxCell>
        <mxCell id="OKgCSa7Ib3VZEgdTsjkK-320" value="1" style="edgeStyle=none;rounded=0;orthogonalLoop=1;jettySize=auto;html=1;entryX=0;entryY=1;entryDx=0;entryDy=0;fontSize=13;strokeColor=#000000;strokeWidth=1;" parent="OKgCSa7Ib3VZEgdTsjkK-1" source="OKgCSa7Ib3VZEgdTsjkK-322" target="OKgCSa7Ib3VZEgdTsjkK-325" edge="1">
          <mxGeometry relative="1" as="geometry" />
        </mxCell>
        <mxCell id="OKgCSa7Ib3VZEgdTsjkK-321" value="2" style="edgeStyle=none;rounded=0;orthogonalLoop=1;jettySize=auto;html=1;entryX=0;entryY=0;entryDx=0;entryDy=0;fontSize=13;strokeColor=#000000;strokeWidth=1;" parent="OKgCSa7Ib3VZEgdTsjkK-1" source="OKgCSa7Ib3VZEgdTsjkK-322" target="OKgCSa7Ib3VZEgdTsjkK-330" edge="1">
          <mxGeometry relative="1" as="geometry" />
        </mxCell>
        <mxCell id="OKgCSa7Ib3VZEgdTsjkK-322" value="A" style="ellipse;whiteSpace=wrap;html=1;aspect=fixed;fontSize=13;" parent="OKgCSa7Ib3VZEgdTsjkK-1" vertex="1">
          <mxGeometry x="99" y="455" width="30" height="30" as="geometry" />
        </mxCell>
        <mxCell id="OKgCSa7Ib3VZEgdTsjkK-323" value="2" style="edgeStyle=none;rounded=0;orthogonalLoop=1;jettySize=auto;html=1;entryX=0.5;entryY=0;entryDx=0;entryDy=0;fontSize=13;strokeColor=#000000;strokeWidth=1;" parent="OKgCSa7Ib3VZEgdTsjkK-1" source="OKgCSa7Ib3VZEgdTsjkK-325" target="OKgCSa7Ib3VZEgdTsjkK-330" edge="1">
          <mxGeometry relative="1" as="geometry" />
        </mxCell>
        <mxCell id="OKgCSa7Ib3VZEgdTsjkK-324" value="4" style="edgeStyle=none;rounded=0;orthogonalLoop=1;jettySize=auto;html=1;fontSize=13;strokeColor=#000000;strokeWidth=1;" parent="OKgCSa7Ib3VZEgdTsjkK-1" source="OKgCSa7Ib3VZEgdTsjkK-325" target="OKgCSa7Ib3VZEgdTsjkK-333" edge="1">
          <mxGeometry relative="1" as="geometry" />
        </mxCell>
        <mxCell id="OKgCSa7Ib3VZEgdTsjkK-325" value="B" style="ellipse;whiteSpace=wrap;html=1;aspect=fixed;fontSize=13;" parent="OKgCSa7Ib3VZEgdTsjkK-1" vertex="1">
          <mxGeometry x="169" y="385" width="30" height="30" as="geometry" />
        </mxCell>
        <mxCell id="OKgCSa7Ib3VZEgdTsjkK-326" value="2" style="edgeStyle=none;rounded=0;orthogonalLoop=1;jettySize=auto;html=1;fontSize=13;strokeColor=#000000;strokeWidth=1;entryX=1;entryY=0.5;entryDx=0;entryDy=0;" parent="OKgCSa7Ib3VZEgdTsjkK-1" source="OKgCSa7Ib3VZEgdTsjkK-328" target="OKgCSa7Ib3VZEgdTsjkK-325" edge="1">
          <mxGeometry relative="1" as="geometry">
            <mxPoint x="239" y="399" as="targetPoint" />
          </mxGeometry>
        </mxCell>
        <mxCell id="OKgCSa7Ib3VZEgdTsjkK-327" value="9" style="edgeStyle=none;rounded=0;orthogonalLoop=1;jettySize=auto;html=1;fontSize=13;strokeColor=#000000;strokeWidth=1;" parent="OKgCSa7Ib3VZEgdTsjkK-1" source="OKgCSa7Ib3VZEgdTsjkK-328" target="OKgCSa7Ib3VZEgdTsjkK-322" edge="1">
          <mxGeometry relative="1" as="geometry">
            <Array as="points">
              <mxPoint x="128" y="335" />
            </Array>
          </mxGeometry>
        </mxCell>
        <mxCell id="OKgCSa7Ib3VZEgdTsjkK-328" value="C" style="ellipse;whiteSpace=wrap;html=1;aspect=fixed;fontSize=13;" parent="OKgCSa7Ib3VZEgdTsjkK-1" vertex="1">
          <mxGeometry x="289" y="385" width="30" height="30" as="geometry" />
        </mxCell>
        <mxCell id="OKgCSa7Ib3VZEgdTsjkK-329" value="1" style="edgeStyle=none;rounded=0;orthogonalLoop=1;jettySize=auto;html=1;fontSize=13;strokeColor=#000000;strokeWidth=1;" parent="OKgCSa7Ib3VZEgdTsjkK-1" source="OKgCSa7Ib3VZEgdTsjkK-330" target="OKgCSa7Ib3VZEgdTsjkK-333" edge="1">
          <mxGeometry relative="1" as="geometry" />
        </mxCell>
        <mxCell id="OKgCSa7Ib3VZEgdTsjkK-330" value="E" style="ellipse;whiteSpace=wrap;html=1;aspect=fixed;fontSize=13;" parent="OKgCSa7Ib3VZEgdTsjkK-1" vertex="1">
          <mxGeometry x="169" y="525" width="30" height="30" as="geometry" />
        </mxCell>
        <mxCell id="OKgCSa7Ib3VZEgdTsjkK-331" value="1" style="edgeStyle=none;rounded=0;orthogonalLoop=1;jettySize=auto;html=1;fontSize=13;strokeColor=#000000;strokeWidth=1;" parent="OKgCSa7Ib3VZEgdTsjkK-1" source="OKgCSa7Ib3VZEgdTsjkK-333" target="OKgCSa7Ib3VZEgdTsjkK-328" edge="1">
          <mxGeometry relative="1" as="geometry" />
        </mxCell>
        <mxCell id="OKgCSa7Ib3VZEgdTsjkK-332" value="2" style="edgeStyle=none;rounded=0;orthogonalLoop=1;jettySize=auto;html=1;fontSize=13;strokeColor=#000000;strokeWidth=1;entryX=0.5;entryY=1;entryDx=0;entryDy=0;" parent="OKgCSa7Ib3VZEgdTsjkK-1" source="OKgCSa7Ib3VZEgdTsjkK-333" target="OKgCSa7Ib3VZEgdTsjkK-322" edge="1">
          <mxGeometry relative="1" as="geometry">
            <mxPoint x="125" y="505" as="targetPoint" />
            <Array as="points">
              <mxPoint x="139" y="595" />
            </Array>
          </mxGeometry>
        </mxCell>
        <mxCell id="OKgCSa7Ib3VZEgdTsjkK-333" value="D" style="ellipse;whiteSpace=wrap;html=1;aspect=fixed;fontSize=13;" parent="OKgCSa7Ib3VZEgdTsjkK-1" vertex="1">
          <mxGeometry x="289" y="525" width="30" height="30" as="geometry" />
        </mxCell>
        <mxCell id="OKgCSa7Ib3VZEgdTsjkK-334" value="1,A" style="text;html=1;strokeColor=none;fillColor=none;align=center;verticalAlign=middle;whiteSpace=wrap;rounded=0;fontSize=13;fontStyle=1" parent="OKgCSa7Ib3VZEgdTsjkK-1" vertex="1">
          <mxGeometry x="164" y="365" width="40" height="20" as="geometry" />
        </mxCell>
        <mxCell id="OKgCSa7Ib3VZEgdTsjkK-335" value="5,D" style="text;html=1;strokeColor=none;fillColor=none;align=center;verticalAlign=middle;whiteSpace=wrap;rounded=0;fontSize=13;fontStyle=1" parent="OKgCSa7Ib3VZEgdTsjkK-1" vertex="1">
          <mxGeometry x="289" y="365" width="40" height="20" as="geometry" />
        </mxCell>
        <mxCell id="OKgCSa7Ib3VZEgdTsjkK-336" value="3,B" style="text;html=1;strokeColor=none;fillColor=none;align=center;verticalAlign=middle;whiteSpace=wrap;rounded=0;fontSize=13;fontStyle=1" parent="OKgCSa7Ib3VZEgdTsjkK-1" vertex="1">
          <mxGeometry x="164" y="555" width="40" height="20" as="geometry" />
        </mxCell>
        <mxCell id="OKgCSa7Ib3VZEgdTsjkK-337" value="4,E" style="text;html=1;strokeColor=none;fillColor=none;align=center;verticalAlign=middle;whiteSpace=wrap;rounded=0;fontSize=13;fontStyle=1" parent="OKgCSa7Ib3VZEgdTsjkK-1" vertex="1">
          <mxGeometry x="279" y="555" width="40" height="20" as="geometry" />
        </mxCell>
        <mxCell id="OKgCSa7Ib3VZEgdTsjkK-338" value="1" style="edgeStyle=none;rounded=0;orthogonalLoop=1;jettySize=auto;html=1;entryX=0;entryY=1;entryDx=0;entryDy=0;fontSize=13;strokeColor=#000000;strokeWidth=3;" parent="OKgCSa7Ib3VZEgdTsjkK-1" source="OKgCSa7Ib3VZEgdTsjkK-340" target="OKgCSa7Ib3VZEgdTsjkK-343" edge="1">
          <mxGeometry relative="1" as="geometry" />
        </mxCell>
        <mxCell id="OKgCSa7Ib3VZEgdTsjkK-339" value="2" style="edgeStyle=none;rounded=0;orthogonalLoop=1;jettySize=auto;html=1;entryX=0;entryY=0;entryDx=0;entryDy=0;fontSize=13;strokeColor=#000000;strokeWidth=1;" parent="OKgCSa7Ib3VZEgdTsjkK-1" source="OKgCSa7Ib3VZEgdTsjkK-340" target="OKgCSa7Ib3VZEgdTsjkK-348" edge="1">
          <mxGeometry relative="1" as="geometry" />
        </mxCell>
        <mxCell id="OKgCSa7Ib3VZEgdTsjkK-340" value="A" style="ellipse;whiteSpace=wrap;html=1;aspect=fixed;fontSize=13;strokeWidth=2;" parent="OKgCSa7Ib3VZEgdTsjkK-1" vertex="1">
          <mxGeometry x="399" y="445" width="30" height="30" as="geometry" />
        </mxCell>
        <mxCell id="OKgCSa7Ib3VZEgdTsjkK-341" value="2" style="edgeStyle=none;rounded=0;orthogonalLoop=1;jettySize=auto;html=1;entryX=0.5;entryY=0;entryDx=0;entryDy=0;fontSize=13;strokeColor=#000000;strokeWidth=3;" parent="OKgCSa7Ib3VZEgdTsjkK-1" source="OKgCSa7Ib3VZEgdTsjkK-343" target="OKgCSa7Ib3VZEgdTsjkK-348" edge="1">
          <mxGeometry relative="1" as="geometry" />
        </mxCell>
        <mxCell id="OKgCSa7Ib3VZEgdTsjkK-342" value="4" style="edgeStyle=none;rounded=0;orthogonalLoop=1;jettySize=auto;html=1;fontSize=13;strokeColor=#000000;strokeWidth=1;" parent="OKgCSa7Ib3VZEgdTsjkK-1" source="OKgCSa7Ib3VZEgdTsjkK-343" target="OKgCSa7Ib3VZEgdTsjkK-351" edge="1">
          <mxGeometry relative="1" as="geometry" />
        </mxCell>
        <mxCell id="OKgCSa7Ib3VZEgdTsjkK-343" value="B" style="ellipse;whiteSpace=wrap;html=1;aspect=fixed;fontSize=13;strokeWidth=2;" parent="OKgCSa7Ib3VZEgdTsjkK-1" vertex="1">
          <mxGeometry x="469" y="375" width="30" height="30" as="geometry" />
        </mxCell>
        <mxCell id="OKgCSa7Ib3VZEgdTsjkK-344" value="2" style="edgeStyle=none;rounded=0;orthogonalLoop=1;jettySize=auto;html=1;fontSize=13;strokeColor=#000000;strokeWidth=1;entryX=1;entryY=0.5;entryDx=0;entryDy=0;" parent="OKgCSa7Ib3VZEgdTsjkK-1" source="OKgCSa7Ib3VZEgdTsjkK-346" target="OKgCSa7Ib3VZEgdTsjkK-343" edge="1">
          <mxGeometry relative="1" as="geometry">
            <mxPoint x="539" y="389" as="targetPoint" />
          </mxGeometry>
        </mxCell>
        <mxCell id="OKgCSa7Ib3VZEgdTsjkK-345" value="9" style="edgeStyle=none;rounded=0;orthogonalLoop=1;jettySize=auto;html=1;fontSize=13;strokeColor=#000000;strokeWidth=1;" parent="OKgCSa7Ib3VZEgdTsjkK-1" source="OKgCSa7Ib3VZEgdTsjkK-346" target="OKgCSa7Ib3VZEgdTsjkK-340" edge="1">
          <mxGeometry relative="1" as="geometry">
            <Array as="points">
              <mxPoint x="428" y="325" />
            </Array>
          </mxGeometry>
        </mxCell>
        <mxCell id="OKgCSa7Ib3VZEgdTsjkK-346" value="C" style="ellipse;whiteSpace=wrap;html=1;aspect=fixed;fontSize=13;strokeWidth=2;" parent="OKgCSa7Ib3VZEgdTsjkK-1" vertex="1">
          <mxGeometry x="589" y="375" width="30" height="30" as="geometry" />
        </mxCell>
        <mxCell id="OKgCSa7Ib3VZEgdTsjkK-347" value="1" style="edgeStyle=none;rounded=0;orthogonalLoop=1;jettySize=auto;html=1;fontSize=13;strokeColor=#000000;strokeWidth=3;" parent="OKgCSa7Ib3VZEgdTsjkK-1" source="OKgCSa7Ib3VZEgdTsjkK-348" target="OKgCSa7Ib3VZEgdTsjkK-351" edge="1">
          <mxGeometry relative="1" as="geometry" />
        </mxCell>
        <mxCell id="OKgCSa7Ib3VZEgdTsjkK-348" value="E" style="ellipse;whiteSpace=wrap;html=1;aspect=fixed;fontSize=13;strokeWidth=2;" parent="OKgCSa7Ib3VZEgdTsjkK-1" vertex="1">
          <mxGeometry x="469" y="515" width="30" height="30" as="geometry" />
        </mxCell>
        <mxCell id="OKgCSa7Ib3VZEgdTsjkK-349" value="1" style="edgeStyle=none;rounded=0;orthogonalLoop=1;jettySize=auto;html=1;fontSize=13;strokeColor=#000000;strokeWidth=3;" parent="OKgCSa7Ib3VZEgdTsjkK-1" source="OKgCSa7Ib3VZEgdTsjkK-351" target="OKgCSa7Ib3VZEgdTsjkK-346" edge="1">
          <mxGeometry relative="1" as="geometry" />
        </mxCell>
        <mxCell id="OKgCSa7Ib3VZEgdTsjkK-350" value="2" style="edgeStyle=none;rounded=0;orthogonalLoop=1;jettySize=auto;html=1;fontSize=13;strokeColor=#000000;strokeWidth=1;entryX=0.5;entryY=1;entryDx=0;entryDy=0;" parent="OKgCSa7Ib3VZEgdTsjkK-1" source="OKgCSa7Ib3VZEgdTsjkK-351" target="OKgCSa7Ib3VZEgdTsjkK-340" edge="1">
          <mxGeometry relative="1" as="geometry">
            <mxPoint x="425" y="495" as="targetPoint" />
            <Array as="points">
              <mxPoint x="439" y="585" />
            </Array>
          </mxGeometry>
        </mxCell>
        <mxCell id="OKgCSa7Ib3VZEgdTsjkK-351" value="D" style="ellipse;whiteSpace=wrap;html=1;aspect=fixed;fontSize=13;strokeWidth=2;" parent="OKgCSa7Ib3VZEgdTsjkK-1" vertex="1">
          <mxGeometry x="589" y="515" width="30" height="30" as="geometry" />
        </mxCell>
        <mxCell id="OKgCSa7Ib3VZEgdTsjkK-356" value="0" style="text;html=1;strokeColor=none;fillColor=none;align=center;verticalAlign=middle;whiteSpace=wrap;rounded=0;fontSize=13;" parent="OKgCSa7Ib3VZEgdTsjkK-1" vertex="1">
          <mxGeometry x="269" y="495" width="40" height="20" as="geometry" />
        </mxCell>
        <mxCell id="OKgCSa7Ib3VZEgdTsjkK-357" value="1" style="edgeStyle=none;rounded=0;orthogonalLoop=1;jettySize=auto;html=1;entryX=0;entryY=1;entryDx=0;entryDy=0;fontSize=13;strokeColor=#000000;strokeWidth=3;" parent="OKgCSa7Ib3VZEgdTsjkK-1" source="OKgCSa7Ib3VZEgdTsjkK-359" target="OKgCSa7Ib3VZEgdTsjkK-362" edge="1">
          <mxGeometry relative="1" as="geometry" />
        </mxCell>
        <mxCell id="OKgCSa7Ib3VZEgdTsjkK-358" value="2" style="edgeStyle=none;rounded=0;orthogonalLoop=1;jettySize=auto;html=1;entryX=0;entryY=0;entryDx=0;entryDy=0;fontSize=13;strokeColor=#000000;strokeWidth=1;" parent="OKgCSa7Ib3VZEgdTsjkK-1" source="OKgCSa7Ib3VZEgdTsjkK-359" target="OKgCSa7Ib3VZEgdTsjkK-367" edge="1">
          <mxGeometry relative="1" as="geometry" />
        </mxCell>
        <mxCell id="OKgCSa7Ib3VZEgdTsjkK-359" value="A" style="ellipse;whiteSpace=wrap;html=1;aspect=fixed;fontSize=13;" parent="OKgCSa7Ib3VZEgdTsjkK-1" vertex="1">
          <mxGeometry x="389" y="1075" width="30" height="30" as="geometry" />
        </mxCell>
        <mxCell id="OKgCSa7Ib3VZEgdTsjkK-360" value="2" style="edgeStyle=none;rounded=0;orthogonalLoop=1;jettySize=auto;html=1;entryX=0.5;entryY=0;entryDx=0;entryDy=0;fontSize=13;strokeColor=#000000;strokeWidth=3;" parent="OKgCSa7Ib3VZEgdTsjkK-1" source="OKgCSa7Ib3VZEgdTsjkK-362" target="OKgCSa7Ib3VZEgdTsjkK-367" edge="1">
          <mxGeometry relative="1" as="geometry" />
        </mxCell>
        <mxCell id="OKgCSa7Ib3VZEgdTsjkK-361" value="4" style="edgeStyle=none;rounded=0;orthogonalLoop=1;jettySize=auto;html=1;fontSize=13;strokeColor=#000000;strokeWidth=1;" parent="OKgCSa7Ib3VZEgdTsjkK-1" source="OKgCSa7Ib3VZEgdTsjkK-362" target="OKgCSa7Ib3VZEgdTsjkK-370" edge="1">
          <mxGeometry relative="1" as="geometry" />
        </mxCell>
        <mxCell id="OKgCSa7Ib3VZEgdTsjkK-362" value="B" style="ellipse;whiteSpace=wrap;html=1;aspect=fixed;fontSize=13;" parent="OKgCSa7Ib3VZEgdTsjkK-1" vertex="1">
          <mxGeometry x="459" y="1005" width="30" height="30" as="geometry" />
        </mxCell>
        <mxCell id="OKgCSa7Ib3VZEgdTsjkK-363" value="2" style="edgeStyle=none;rounded=0;orthogonalLoop=1;jettySize=auto;html=1;fontSize=13;strokeColor=#000000;strokeWidth=1;entryX=1;entryY=0.5;entryDx=0;entryDy=0;" parent="OKgCSa7Ib3VZEgdTsjkK-1" source="OKgCSa7Ib3VZEgdTsjkK-365" target="OKgCSa7Ib3VZEgdTsjkK-362" edge="1">
          <mxGeometry relative="1" as="geometry">
            <mxPoint x="529" y="1019" as="targetPoint" />
          </mxGeometry>
        </mxCell>
        <mxCell id="OKgCSa7Ib3VZEgdTsjkK-364" value="9" style="edgeStyle=none;rounded=0;orthogonalLoop=1;jettySize=auto;html=1;fontSize=13;strokeColor=#000000;strokeWidth=1;" parent="OKgCSa7Ib3VZEgdTsjkK-1" source="OKgCSa7Ib3VZEgdTsjkK-365" target="OKgCSa7Ib3VZEgdTsjkK-359" edge="1">
          <mxGeometry relative="1" as="geometry">
            <Array as="points">
              <mxPoint x="418" y="955" />
            </Array>
          </mxGeometry>
        </mxCell>
        <mxCell id="OKgCSa7Ib3VZEgdTsjkK-365" value="C" style="ellipse;whiteSpace=wrap;html=1;aspect=fixed;fontSize=13;" parent="OKgCSa7Ib3VZEgdTsjkK-1" vertex="1">
          <mxGeometry x="579" y="1005" width="30" height="30" as="geometry" />
        </mxCell>
        <mxCell id="OKgCSa7Ib3VZEgdTsjkK-366" value="1" style="edgeStyle=none;rounded=0;orthogonalLoop=1;jettySize=auto;html=1;fontSize=13;strokeColor=#000000;strokeWidth=3;" parent="OKgCSa7Ib3VZEgdTsjkK-1" source="OKgCSa7Ib3VZEgdTsjkK-367" target="OKgCSa7Ib3VZEgdTsjkK-370" edge="1">
          <mxGeometry relative="1" as="geometry" />
        </mxCell>
        <mxCell id="OKgCSa7Ib3VZEgdTsjkK-367" value="E" style="ellipse;whiteSpace=wrap;html=1;aspect=fixed;fontSize=13;" parent="OKgCSa7Ib3VZEgdTsjkK-1" vertex="1">
          <mxGeometry x="459" y="1145" width="30" height="30" as="geometry" />
        </mxCell>
        <mxCell id="OKgCSa7Ib3VZEgdTsjkK-368" value="1" style="edgeStyle=none;rounded=0;orthogonalLoop=1;jettySize=auto;html=1;fontSize=13;strokeColor=#000000;strokeWidth=3;" parent="OKgCSa7Ib3VZEgdTsjkK-1" source="OKgCSa7Ib3VZEgdTsjkK-370" target="OKgCSa7Ib3VZEgdTsjkK-365" edge="1">
          <mxGeometry relative="1" as="geometry" />
        </mxCell>
        <mxCell id="OKgCSa7Ib3VZEgdTsjkK-369" value="2" style="edgeStyle=none;rounded=0;orthogonalLoop=1;jettySize=auto;html=1;fontSize=13;strokeColor=#000000;strokeWidth=1;entryX=0.5;entryY=1;entryDx=0;entryDy=0;" parent="OKgCSa7Ib3VZEgdTsjkK-1" source="OKgCSa7Ib3VZEgdTsjkK-370" target="OKgCSa7Ib3VZEgdTsjkK-359" edge="1">
          <mxGeometry relative="1" as="geometry">
            <mxPoint x="415" y="1095" as="targetPoint" />
            <Array as="points">
              <mxPoint x="429" y="1185" />
            </Array>
          </mxGeometry>
        </mxCell>
        <mxCell id="OKgCSa7Ib3VZEgdTsjkK-370" value="D" style="ellipse;whiteSpace=wrap;html=1;aspect=fixed;fontSize=13;" parent="OKgCSa7Ib3VZEgdTsjkK-1" vertex="1">
          <mxGeometry x="579" y="1145" width="30" height="30" as="geometry" />
        </mxCell>
        <mxCell id="OKgCSa7Ib3VZEgdTsjkK-371" value="1,A" style="text;html=1;strokeColor=none;fillColor=none;align=center;verticalAlign=middle;whiteSpace=wrap;rounded=0;fontSize=13;fontStyle=1" parent="OKgCSa7Ib3VZEgdTsjkK-1" vertex="1">
          <mxGeometry x="454" y="985" width="40" height="20" as="geometry" />
        </mxCell>
        <mxCell id="OKgCSa7Ib3VZEgdTsjkK-372" value="5,D" style="text;html=1;strokeColor=none;fillColor=none;align=center;verticalAlign=middle;whiteSpace=wrap;rounded=0;fontSize=13;fontStyle=1" parent="OKgCSa7Ib3VZEgdTsjkK-1" vertex="1">
          <mxGeometry x="579" y="985" width="40" height="20" as="geometry" />
        </mxCell>
        <mxCell id="OKgCSa7Ib3VZEgdTsjkK-373" value="3,B" style="text;html=1;strokeColor=none;fillColor=none;align=center;verticalAlign=middle;whiteSpace=wrap;rounded=0;fontSize=13;fontStyle=1" parent="OKgCSa7Ib3VZEgdTsjkK-1" vertex="1">
          <mxGeometry x="460" y="1190" width="40" height="20" as="geometry" />
        </mxCell>
        <mxCell id="OKgCSa7Ib3VZEgdTsjkK-374" value="4,E" style="text;html=1;strokeColor=none;fillColor=none;align=center;verticalAlign=middle;whiteSpace=wrap;rounded=0;fontSize=13;fontStyle=1" parent="OKgCSa7Ib3VZEgdTsjkK-1" vertex="1">
          <mxGeometry x="569" y="1175" width="40" height="20" as="geometry" />
        </mxCell>
        <mxCell id="OKgCSa7Ib3VZEgdTsjkK-480" value="1" style="edgeStyle=none;rounded=0;orthogonalLoop=1;jettySize=auto;html=1;entryX=0;entryY=1;entryDx=0;entryDy=0;fontSize=13;strokeColor=#000000;strokeWidth=1;" parent="OKgCSa7Ib3VZEgdTsjkK-1" target="OKgCSa7Ib3VZEgdTsjkK-484" edge="1">
          <mxGeometry relative="1" as="geometry">
            <mxPoint x="96.60660171775999" y="744.3933982822396" as="sourcePoint" />
          </mxGeometry>
        </mxCell>
        <mxCell id="OKgCSa7Ib3VZEgdTsjkK-481" value="2" style="edgeStyle=none;rounded=0;orthogonalLoop=1;jettySize=auto;html=1;entryX=0;entryY=0;entryDx=0;entryDy=0;fontSize=13;strokeColor=#000000;strokeWidth=1;" parent="OKgCSa7Ib3VZEgdTsjkK-1" target="OKgCSa7Ib3VZEgdTsjkK-489" edge="1">
          <mxGeometry relative="1" as="geometry">
            <mxPoint x="96.60660171775999" y="765.6066017177604" as="sourcePoint" />
          </mxGeometry>
        </mxCell>
        <mxCell id="OKgCSa7Ib3VZEgdTsjkK-482" value="2" style="edgeStyle=none;rounded=0;orthogonalLoop=1;jettySize=auto;html=1;entryX=0.5;entryY=0;entryDx=0;entryDy=0;fontSize=13;strokeColor=#000000;strokeWidth=1;" parent="OKgCSa7Ib3VZEgdTsjkK-1" source="OKgCSa7Ib3VZEgdTsjkK-484" target="OKgCSa7Ib3VZEgdTsjkK-489" edge="1">
          <mxGeometry relative="1" as="geometry" />
        </mxCell>
        <mxCell id="OKgCSa7Ib3VZEgdTsjkK-483" value="4" style="edgeStyle=none;rounded=0;orthogonalLoop=1;jettySize=auto;html=1;fontSize=13;strokeColor=#000000;strokeWidth=1;" parent="OKgCSa7Ib3VZEgdTsjkK-1" source="OKgCSa7Ib3VZEgdTsjkK-484" target="OKgCSa7Ib3VZEgdTsjkK-492" edge="1">
          <mxGeometry relative="1" as="geometry" />
        </mxCell>
        <mxCell id="OKgCSa7Ib3VZEgdTsjkK-484" value="B" style="ellipse;whiteSpace=wrap;html=1;aspect=fixed;fontSize=13;" parent="OKgCSa7Ib3VZEgdTsjkK-1" vertex="1">
          <mxGeometry x="141" y="670" width="30" height="30" as="geometry" />
        </mxCell>
        <mxCell id="OKgCSa7Ib3VZEgdTsjkK-485" value="2" style="edgeStyle=none;rounded=0;orthogonalLoop=1;jettySize=auto;html=1;fontSize=13;strokeColor=#000000;strokeWidth=1;entryX=1;entryY=0.5;entryDx=0;entryDy=0;" parent="OKgCSa7Ib3VZEgdTsjkK-1" source="OKgCSa7Ib3VZEgdTsjkK-487" target="OKgCSa7Ib3VZEgdTsjkK-484" edge="1">
          <mxGeometry relative="1" as="geometry">
            <mxPoint x="211" y="684" as="targetPoint" />
          </mxGeometry>
        </mxCell>
        <mxCell id="OKgCSa7Ib3VZEgdTsjkK-486" value="9" style="edgeStyle=none;rounded=0;orthogonalLoop=1;jettySize=auto;html=1;fontSize=13;strokeColor=#000000;strokeWidth=1;" parent="OKgCSa7Ib3VZEgdTsjkK-1" source="OKgCSa7Ib3VZEgdTsjkK-487" edge="1">
          <mxGeometry relative="1" as="geometry">
            <Array as="points">
              <mxPoint x="100" y="620" />
            </Array>
            <mxPoint x="87.44067720630983" y="740.0693453164192" as="targetPoint" />
          </mxGeometry>
        </mxCell>
        <mxCell id="OKgCSa7Ib3VZEgdTsjkK-487" value="C" style="ellipse;whiteSpace=wrap;html=1;aspect=fixed;fontSize=13;" parent="OKgCSa7Ib3VZEgdTsjkK-1" vertex="1">
          <mxGeometry x="261" y="670" width="30" height="30" as="geometry" />
        </mxCell>
        <mxCell id="OKgCSa7Ib3VZEgdTsjkK-488" value="1" style="edgeStyle=none;rounded=0;orthogonalLoop=1;jettySize=auto;html=1;fontSize=13;strokeColor=#000000;strokeWidth=1;" parent="OKgCSa7Ib3VZEgdTsjkK-1" source="OKgCSa7Ib3VZEgdTsjkK-489" target="OKgCSa7Ib3VZEgdTsjkK-492" edge="1">
          <mxGeometry relative="1" as="geometry" />
        </mxCell>
        <mxCell id="OKgCSa7Ib3VZEgdTsjkK-489" value="E" style="ellipse;whiteSpace=wrap;html=1;aspect=fixed;fontSize=13;" parent="OKgCSa7Ib3VZEgdTsjkK-1" vertex="1">
          <mxGeometry x="141" y="810" width="30" height="30" as="geometry" />
        </mxCell>
        <mxCell id="OKgCSa7Ib3VZEgdTsjkK-490" value="1" style="edgeStyle=none;rounded=0;orthogonalLoop=1;jettySize=auto;html=1;fontSize=13;strokeColor=#000000;strokeWidth=1;" parent="OKgCSa7Ib3VZEgdTsjkK-1" source="OKgCSa7Ib3VZEgdTsjkK-492" target="OKgCSa7Ib3VZEgdTsjkK-487" edge="1">
          <mxGeometry relative="1" as="geometry" />
        </mxCell>
        <mxCell id="OKgCSa7Ib3VZEgdTsjkK-491" value="2" style="edgeStyle=none;rounded=0;orthogonalLoop=1;jettySize=auto;html=1;fontSize=13;strokeColor=#000000;strokeWidth=1;entryX=0.5;entryY=1;entryDx=0;entryDy=0;" parent="OKgCSa7Ib3VZEgdTsjkK-1" source="OKgCSa7Ib3VZEgdTsjkK-492" edge="1">
          <mxGeometry relative="1" as="geometry">
            <mxPoint x="85.99999999999955" y="770" as="targetPoint" />
            <Array as="points">
              <mxPoint x="111" y="880" />
            </Array>
          </mxGeometry>
        </mxCell>
        <mxCell id="OKgCSa7Ib3VZEgdTsjkK-492" value="D" style="ellipse;whiteSpace=wrap;html=1;aspect=fixed;fontSize=13;" parent="OKgCSa7Ib3VZEgdTsjkK-1" vertex="1">
          <mxGeometry x="261" y="810" width="30" height="30" as="geometry" />
        </mxCell>
        <mxCell id="OKgCSa7Ib3VZEgdTsjkK-493" value="OO" style="text;html=1;strokeColor=none;fillColor=none;align=center;verticalAlign=middle;whiteSpace=wrap;rounded=0;fontSize=13;fontStyle=1" parent="OKgCSa7Ib3VZEgdTsjkK-1" vertex="1">
          <mxGeometry x="136" y="650" width="40" height="20" as="geometry" />
        </mxCell>
        <mxCell id="OKgCSa7Ib3VZEgdTsjkK-494" value="OO" style="text;html=1;strokeColor=none;fillColor=none;align=center;verticalAlign=middle;whiteSpace=wrap;rounded=0;fontSize=13;fontStyle=1" parent="OKgCSa7Ib3VZEgdTsjkK-1" vertex="1">
          <mxGeometry x="261" y="650" width="40" height="20" as="geometry" />
        </mxCell>
        <mxCell id="OKgCSa7Ib3VZEgdTsjkK-495" value="OO" style="text;html=1;strokeColor=none;fillColor=none;align=center;verticalAlign=middle;whiteSpace=wrap;rounded=0;fontSize=13;fontStyle=1" parent="OKgCSa7Ib3VZEgdTsjkK-1" vertex="1">
          <mxGeometry x="136" y="840" width="40" height="20" as="geometry" />
        </mxCell>
        <mxCell id="OKgCSa7Ib3VZEgdTsjkK-496" value="OO" style="text;html=1;strokeColor=none;fillColor=none;align=center;verticalAlign=middle;whiteSpace=wrap;rounded=0;fontSize=13;fontStyle=1" parent="OKgCSa7Ib3VZEgdTsjkK-1" vertex="1">
          <mxGeometry x="251" y="840" width="40" height="20" as="geometry" />
        </mxCell>
        <mxCell id="OKgCSa7Ib3VZEgdTsjkK-497" value="1" style="edgeStyle=none;rounded=0;orthogonalLoop=1;jettySize=auto;html=1;entryX=0;entryY=1;entryDx=0;entryDy=0;fontSize=13;strokeColor=#000000;strokeWidth=1;" parent="OKgCSa7Ib3VZEgdTsjkK-1" source="OKgCSa7Ib3VZEgdTsjkK-499" target="OKgCSa7Ib3VZEgdTsjkK-502" edge="1">
          <mxGeometry relative="1" as="geometry" />
        </mxCell>
        <mxCell id="OKgCSa7Ib3VZEgdTsjkK-498" value="2" style="edgeStyle=none;rounded=0;orthogonalLoop=1;jettySize=auto;html=1;entryX=0;entryY=0;entryDx=0;entryDy=0;fontSize=13;strokeColor=#000000;strokeWidth=1;" parent="OKgCSa7Ib3VZEgdTsjkK-1" source="OKgCSa7Ib3VZEgdTsjkK-499" target="OKgCSa7Ib3VZEgdTsjkK-507" edge="1">
          <mxGeometry relative="1" as="geometry" />
        </mxCell>
        <mxCell id="OKgCSa7Ib3VZEgdTsjkK-499" value="A" style="ellipse;whiteSpace=wrap;html=1;aspect=fixed;fontSize=13;" parent="OKgCSa7Ib3VZEgdTsjkK-1" vertex="1">
          <mxGeometry x="80" y="1055" width="30" height="30" as="geometry" />
        </mxCell>
        <mxCell id="OKgCSa7Ib3VZEgdTsjkK-500" value="2" style="edgeStyle=none;rounded=0;orthogonalLoop=1;jettySize=auto;html=1;entryX=0.5;entryY=0;entryDx=0;entryDy=0;fontSize=13;strokeColor=#000000;strokeWidth=1;" parent="OKgCSa7Ib3VZEgdTsjkK-1" source="OKgCSa7Ib3VZEgdTsjkK-502" target="OKgCSa7Ib3VZEgdTsjkK-507" edge="1">
          <mxGeometry relative="1" as="geometry" />
        </mxCell>
        <mxCell id="OKgCSa7Ib3VZEgdTsjkK-501" value="4" style="edgeStyle=none;rounded=0;orthogonalLoop=1;jettySize=auto;html=1;fontSize=13;strokeColor=#000000;strokeWidth=1;" parent="OKgCSa7Ib3VZEgdTsjkK-1" source="OKgCSa7Ib3VZEgdTsjkK-502" target="OKgCSa7Ib3VZEgdTsjkK-510" edge="1">
          <mxGeometry relative="1" as="geometry" />
        </mxCell>
        <mxCell id="OKgCSa7Ib3VZEgdTsjkK-502" value="B" style="ellipse;whiteSpace=wrap;html=1;aspect=fixed;fontSize=13;" parent="OKgCSa7Ib3VZEgdTsjkK-1" vertex="1">
          <mxGeometry x="150" y="985" width="30" height="30" as="geometry" />
        </mxCell>
        <mxCell id="OKgCSa7Ib3VZEgdTsjkK-503" value="2" style="edgeStyle=none;rounded=0;orthogonalLoop=1;jettySize=auto;html=1;fontSize=13;strokeColor=#000000;strokeWidth=1;entryX=1;entryY=0.5;entryDx=0;entryDy=0;" parent="OKgCSa7Ib3VZEgdTsjkK-1" source="OKgCSa7Ib3VZEgdTsjkK-505" target="OKgCSa7Ib3VZEgdTsjkK-502" edge="1">
          <mxGeometry relative="1" as="geometry">
            <mxPoint x="220" y="999" as="targetPoint" />
          </mxGeometry>
        </mxCell>
        <mxCell id="OKgCSa7Ib3VZEgdTsjkK-504" value="9" style="edgeStyle=none;rounded=0;orthogonalLoop=1;jettySize=auto;html=1;fontSize=13;strokeColor=#000000;strokeWidth=1;" parent="OKgCSa7Ib3VZEgdTsjkK-1" source="OKgCSa7Ib3VZEgdTsjkK-505" target="OKgCSa7Ib3VZEgdTsjkK-499" edge="1">
          <mxGeometry relative="1" as="geometry">
            <Array as="points">
              <mxPoint x="109" y="935" />
            </Array>
          </mxGeometry>
        </mxCell>
        <mxCell id="OKgCSa7Ib3VZEgdTsjkK-505" value="C" style="ellipse;whiteSpace=wrap;html=1;aspect=fixed;fontSize=13;" parent="OKgCSa7Ib3VZEgdTsjkK-1" vertex="1">
          <mxGeometry x="270" y="985" width="30" height="30" as="geometry" />
        </mxCell>
        <mxCell id="OKgCSa7Ib3VZEgdTsjkK-506" value="1" style="edgeStyle=none;rounded=0;orthogonalLoop=1;jettySize=auto;html=1;fontSize=13;strokeColor=#000000;strokeWidth=1;" parent="OKgCSa7Ib3VZEgdTsjkK-1" source="OKgCSa7Ib3VZEgdTsjkK-507" target="OKgCSa7Ib3VZEgdTsjkK-510" edge="1">
          <mxGeometry relative="1" as="geometry" />
        </mxCell>
        <mxCell id="OKgCSa7Ib3VZEgdTsjkK-507" value="E" style="ellipse;whiteSpace=wrap;html=1;aspect=fixed;fontSize=13;" parent="OKgCSa7Ib3VZEgdTsjkK-1" vertex="1">
          <mxGeometry x="150" y="1125" width="30" height="30" as="geometry" />
        </mxCell>
        <mxCell id="OKgCSa7Ib3VZEgdTsjkK-508" value="1" style="edgeStyle=none;rounded=0;orthogonalLoop=1;jettySize=auto;html=1;fontSize=13;strokeColor=#000000;strokeWidth=1;" parent="OKgCSa7Ib3VZEgdTsjkK-1" source="OKgCSa7Ib3VZEgdTsjkK-510" target="OKgCSa7Ib3VZEgdTsjkK-505" edge="1">
          <mxGeometry relative="1" as="geometry" />
        </mxCell>
        <mxCell id="OKgCSa7Ib3VZEgdTsjkK-509" value="2" style="edgeStyle=none;rounded=0;orthogonalLoop=1;jettySize=auto;html=1;fontSize=13;strokeColor=#000000;strokeWidth=1;entryX=0.5;entryY=1;entryDx=0;entryDy=0;" parent="OKgCSa7Ib3VZEgdTsjkK-1" source="OKgCSa7Ib3VZEgdTsjkK-510" target="OKgCSa7Ib3VZEgdTsjkK-499" edge="1">
          <mxGeometry relative="1" as="geometry">
            <mxPoint x="106" y="1105" as="targetPoint" />
            <Array as="points">
              <mxPoint x="120" y="1195" />
            </Array>
          </mxGeometry>
        </mxCell>
        <mxCell id="OKgCSa7Ib3VZEgdTsjkK-510" value="D" style="ellipse;whiteSpace=wrap;html=1;aspect=fixed;fontSize=13;" parent="OKgCSa7Ib3VZEgdTsjkK-1" vertex="1">
          <mxGeometry x="270" y="1125" width="30" height="30" as="geometry" />
        </mxCell>
        <mxCell id="OKgCSa7Ib3VZEgdTsjkK-511" value="1,A" style="text;html=1;strokeColor=none;fillColor=none;align=center;verticalAlign=middle;whiteSpace=wrap;rounded=0;fontSize=13;fontStyle=1" parent="OKgCSa7Ib3VZEgdTsjkK-1" vertex="1">
          <mxGeometry x="145" y="965" width="40" height="20" as="geometry" />
        </mxCell>
        <mxCell id="OKgCSa7Ib3VZEgdTsjkK-512" value="5,D" style="text;html=1;strokeColor=none;fillColor=none;align=center;verticalAlign=middle;whiteSpace=wrap;rounded=0;fontSize=13;fontStyle=1" parent="OKgCSa7Ib3VZEgdTsjkK-1" vertex="1">
          <mxGeometry x="270" y="965" width="40" height="20" as="geometry" />
        </mxCell>
        <mxCell id="OKgCSa7Ib3VZEgdTsjkK-513" value="3,B" style="text;html=1;strokeColor=none;fillColor=none;align=center;verticalAlign=middle;whiteSpace=wrap;rounded=0;fontSize=13;fontStyle=1" parent="OKgCSa7Ib3VZEgdTsjkK-1" vertex="1">
          <mxGeometry x="145" y="1155" width="40" height="20" as="geometry" />
        </mxCell>
        <mxCell id="OKgCSa7Ib3VZEgdTsjkK-514" value="4,E" style="text;html=1;strokeColor=none;fillColor=none;align=center;verticalAlign=middle;whiteSpace=wrap;rounded=0;fontSize=13;fontStyle=1" parent="OKgCSa7Ib3VZEgdTsjkK-1" vertex="1">
          <mxGeometry x="260" y="1155" width="40" height="20" as="geometry" />
        </mxCell>
        <mxCell id="OKgCSa7Ib3VZEgdTsjkK-516" value="1" style="edgeStyle=none;rounded=0;orthogonalLoop=1;jettySize=auto;html=1;entryX=0;entryY=1;entryDx=0;entryDy=0;fontSize=13;strokeColor=#000000;strokeWidth=1;" parent="OKgCSa7Ib3VZEgdTsjkK-1" source="OKgCSa7Ib3VZEgdTsjkK-518" target="OKgCSa7Ib3VZEgdTsjkK-521" edge="1">
          <mxGeometry relative="1" as="geometry" />
        </mxCell>
        <mxCell id="OKgCSa7Ib3VZEgdTsjkK-517" value="2" style="edgeStyle=none;rounded=0;orthogonalLoop=1;jettySize=auto;html=1;entryX=0;entryY=0;entryDx=0;entryDy=0;fontSize=13;strokeColor=#000000;strokeWidth=1;" parent="OKgCSa7Ib3VZEgdTsjkK-1" source="OKgCSa7Ib3VZEgdTsjkK-518" target="OKgCSa7Ib3VZEgdTsjkK-526" edge="1">
          <mxGeometry relative="1" as="geometry" />
        </mxCell>
        <mxCell id="OKgCSa7Ib3VZEgdTsjkK-518" value="A" style="ellipse;whiteSpace=wrap;html=1;aspect=fixed;fontSize=13;" parent="OKgCSa7Ib3VZEgdTsjkK-1" vertex="1">
          <mxGeometry x="-200" y="760" width="30" height="30" as="geometry" />
        </mxCell>
        <mxCell id="OKgCSa7Ib3VZEgdTsjkK-519" value="2" style="edgeStyle=none;rounded=0;orthogonalLoop=1;jettySize=auto;html=1;entryX=0.5;entryY=0;entryDx=0;entryDy=0;fontSize=13;strokeColor=#000000;strokeWidth=1;" parent="OKgCSa7Ib3VZEgdTsjkK-1" source="OKgCSa7Ib3VZEgdTsjkK-521" target="OKgCSa7Ib3VZEgdTsjkK-526" edge="1">
          <mxGeometry relative="1" as="geometry" />
        </mxCell>
        <mxCell id="OKgCSa7Ib3VZEgdTsjkK-520" value="4" style="edgeStyle=none;rounded=0;orthogonalLoop=1;jettySize=auto;html=1;fontSize=13;strokeColor=#000000;strokeWidth=1;" parent="OKgCSa7Ib3VZEgdTsjkK-1" source="OKgCSa7Ib3VZEgdTsjkK-521" target="OKgCSa7Ib3VZEgdTsjkK-529" edge="1">
          <mxGeometry relative="1" as="geometry" />
        </mxCell>
        <mxCell id="OKgCSa7Ib3VZEgdTsjkK-521" value="B" style="ellipse;whiteSpace=wrap;html=1;aspect=fixed;fontSize=13;" parent="OKgCSa7Ib3VZEgdTsjkK-1" vertex="1">
          <mxGeometry x="-130" y="690" width="30" height="30" as="geometry" />
        </mxCell>
        <mxCell id="OKgCSa7Ib3VZEgdTsjkK-522" value="2" style="edgeStyle=none;rounded=0;orthogonalLoop=1;jettySize=auto;html=1;fontSize=13;strokeColor=#000000;strokeWidth=1;entryX=1;entryY=0.5;entryDx=0;entryDy=0;" parent="OKgCSa7Ib3VZEgdTsjkK-1" source="OKgCSa7Ib3VZEgdTsjkK-524" target="OKgCSa7Ib3VZEgdTsjkK-521" edge="1">
          <mxGeometry relative="1" as="geometry">
            <mxPoint x="-60" y="704" as="targetPoint" />
          </mxGeometry>
        </mxCell>
        <mxCell id="OKgCSa7Ib3VZEgdTsjkK-523" value="9" style="edgeStyle=none;rounded=0;orthogonalLoop=1;jettySize=auto;html=1;fontSize=13;strokeColor=#000000;strokeWidth=1;" parent="OKgCSa7Ib3VZEgdTsjkK-1" source="OKgCSa7Ib3VZEgdTsjkK-524" target="OKgCSa7Ib3VZEgdTsjkK-518" edge="1">
          <mxGeometry relative="1" as="geometry">
            <Array as="points">
              <mxPoint x="-171" y="640" />
            </Array>
          </mxGeometry>
        </mxCell>
        <mxCell id="OKgCSa7Ib3VZEgdTsjkK-524" value="C" style="ellipse;whiteSpace=wrap;html=1;aspect=fixed;fontSize=13;" parent="OKgCSa7Ib3VZEgdTsjkK-1" vertex="1">
          <mxGeometry x="-10" y="690" width="30" height="30" as="geometry" />
        </mxCell>
        <mxCell id="OKgCSa7Ib3VZEgdTsjkK-525" value="1" style="edgeStyle=none;rounded=0;orthogonalLoop=1;jettySize=auto;html=1;fontSize=13;strokeColor=#000000;strokeWidth=1;" parent="OKgCSa7Ib3VZEgdTsjkK-1" source="OKgCSa7Ib3VZEgdTsjkK-526" target="OKgCSa7Ib3VZEgdTsjkK-529" edge="1">
          <mxGeometry relative="1" as="geometry" />
        </mxCell>
        <mxCell id="OKgCSa7Ib3VZEgdTsjkK-526" value="E" style="ellipse;whiteSpace=wrap;html=1;aspect=fixed;fontSize=13;" parent="OKgCSa7Ib3VZEgdTsjkK-1" vertex="1">
          <mxGeometry x="-130" y="830" width="30" height="30" as="geometry" />
        </mxCell>
        <mxCell id="OKgCSa7Ib3VZEgdTsjkK-527" value="1" style="edgeStyle=none;rounded=0;orthogonalLoop=1;jettySize=auto;html=1;fontSize=13;strokeColor=#000000;strokeWidth=1;" parent="OKgCSa7Ib3VZEgdTsjkK-1" source="OKgCSa7Ib3VZEgdTsjkK-529" target="OKgCSa7Ib3VZEgdTsjkK-524" edge="1">
          <mxGeometry relative="1" as="geometry" />
        </mxCell>
        <mxCell id="OKgCSa7Ib3VZEgdTsjkK-528" value="2" style="edgeStyle=none;rounded=0;orthogonalLoop=1;jettySize=auto;html=1;fontSize=13;strokeColor=#000000;strokeWidth=1;entryX=0.5;entryY=1;entryDx=0;entryDy=0;" parent="OKgCSa7Ib3VZEgdTsjkK-1" source="OKgCSa7Ib3VZEgdTsjkK-529" target="OKgCSa7Ib3VZEgdTsjkK-518" edge="1">
          <mxGeometry relative="1" as="geometry">
            <mxPoint x="-174" y="810" as="targetPoint" />
            <Array as="points">
              <mxPoint x="-160" y="900" />
            </Array>
          </mxGeometry>
        </mxCell>
        <mxCell id="OKgCSa7Ib3VZEgdTsjkK-529" value="D" style="ellipse;whiteSpace=wrap;html=1;aspect=fixed;fontSize=13;" parent="OKgCSa7Ib3VZEgdTsjkK-1" vertex="1">
          <mxGeometry x="-10" y="830" width="30" height="30" as="geometry" />
        </mxCell>
      </root>
    </mxGraphModel>
  </diagram>
  <diagram id="hS0nFegsQ8mglBB8lI_d" name="Page-3">
    <mxGraphModel dx="1102" dy="622" grid="1" gridSize="10" guides="1" tooltips="1" connect="1" arrows="1" fold="1" page="1" pageScale="1" pageWidth="827" pageHeight="1169" math="0" shadow="0">
      <root>
        <mxCell id="7PVBfSDxAti9A3bYtXVE-0" />
        <mxCell id="7PVBfSDxAti9A3bYtXVE-1" parent="7PVBfSDxAti9A3bYtXVE-0" />
        <mxCell id="0cEmBsYHQ610rucGHz6C-6" value="0" style="edgeStyle=none;rounded=0;orthogonalLoop=1;jettySize=auto;html=1;entryX=0;entryY=1;entryDx=0;entryDy=0;fontSize=13;strokeColor=#000000;strokeWidth=1;" parent="7PVBfSDxAti9A3bYtXVE-1" source="0cEmBsYHQ610rucGHz6C-0" target="0cEmBsYHQ610rucGHz6C-1" edge="1">
          <mxGeometry relative="1" as="geometry" />
        </mxCell>
        <mxCell id="0cEmBsYHQ610rucGHz6C-7" value="0" style="edgeStyle=none;rounded=0;orthogonalLoop=1;jettySize=auto;html=1;entryX=0;entryY=1;entryDx=0;entryDy=0;fontSize=13;strokeColor=#000000;strokeWidth=1;" parent="7PVBfSDxAti9A3bYtXVE-1" source="0cEmBsYHQ610rucGHz6C-0" target="0cEmBsYHQ610rucGHz6C-2" edge="1">
          <mxGeometry relative="1" as="geometry" />
        </mxCell>
        <mxCell id="0cEmBsYHQ610rucGHz6C-8" value="0" style="edgeStyle=none;rounded=0;orthogonalLoop=1;jettySize=auto;html=1;entryX=0;entryY=0;entryDx=0;entryDy=0;fontSize=13;strokeColor=#000000;strokeWidth=1;" parent="7PVBfSDxAti9A3bYtXVE-1" source="0cEmBsYHQ610rucGHz6C-0" target="0cEmBsYHQ610rucGHz6C-3" edge="1">
          <mxGeometry relative="1" as="geometry" />
        </mxCell>
        <mxCell id="0cEmBsYHQ610rucGHz6C-9" value="0" style="edgeStyle=none;rounded=0;orthogonalLoop=1;jettySize=auto;html=1;entryX=0;entryY=0;entryDx=0;entryDy=0;fontSize=13;strokeColor=#000000;strokeWidth=1;" parent="7PVBfSDxAti9A3bYtXVE-1" source="0cEmBsYHQ610rucGHz6C-0" target="0cEmBsYHQ610rucGHz6C-4" edge="1">
          <mxGeometry relative="1" as="geometry" />
        </mxCell>
        <mxCell id="0cEmBsYHQ610rucGHz6C-0" value="S" style="ellipse;whiteSpace=wrap;html=1;aspect=fixed;fontSize=13;strokeWidth=1;" parent="7PVBfSDxAti9A3bYtXVE-1" vertex="1">
          <mxGeometry x="50" y="270" width="40" height="40" as="geometry" />
        </mxCell>
        <mxCell id="0cEmBsYHQ610rucGHz6C-10" value="1" style="edgeStyle=none;rounded=0;orthogonalLoop=1;jettySize=auto;html=1;entryX=0;entryY=0;entryDx=0;entryDy=0;fontSize=13;strokeColor=#000000;strokeWidth=1;" parent="7PVBfSDxAti9A3bYtXVE-1" source="0cEmBsYHQ610rucGHz6C-1" target="0cEmBsYHQ610rucGHz6C-5" edge="1">
          <mxGeometry relative="1" as="geometry" />
        </mxCell>
        <mxCell id="0cEmBsYHQ610rucGHz6C-14" value="7" style="edgeStyle=none;rounded=0;orthogonalLoop=1;jettySize=auto;html=1;fontSize=13;strokeColor=#000000;strokeWidth=1;" parent="7PVBfSDxAti9A3bYtXVE-1" source="0cEmBsYHQ610rucGHz6C-1" target="0cEmBsYHQ610rucGHz6C-4" edge="1">
          <mxGeometry relative="1" as="geometry">
            <Array as="points">
              <mxPoint x="140" y="130" />
              <mxPoint x="140" y="470" />
            </Array>
          </mxGeometry>
        </mxCell>
        <mxCell id="0cEmBsYHQ610rucGHz6C-1" value="A" style="ellipse;whiteSpace=wrap;html=1;aspect=fixed;fontSize=13;strokeWidth=1;" parent="7PVBfSDxAti9A3bYtXVE-1" vertex="1">
          <mxGeometry x="210" y="50" width="40" height="40" as="geometry" />
        </mxCell>
        <mxCell id="0cEmBsYHQ610rucGHz6C-11" value="1" style="edgeStyle=none;rounded=0;orthogonalLoop=1;jettySize=auto;html=1;entryX=0;entryY=0.5;entryDx=0;entryDy=0;fontSize=13;strokeColor=#000000;strokeWidth=1;" parent="7PVBfSDxAti9A3bYtXVE-1" source="0cEmBsYHQ610rucGHz6C-2" target="0cEmBsYHQ610rucGHz6C-5" edge="1">
          <mxGeometry relative="1" as="geometry" />
        </mxCell>
        <mxCell id="0cEmBsYHQ610rucGHz6C-18" value="-1" style="edgeStyle=none;rounded=0;orthogonalLoop=1;jettySize=auto;html=1;fontSize=13;strokeColor=#000000;strokeWidth=1;" parent="7PVBfSDxAti9A3bYtXVE-1" source="0cEmBsYHQ610rucGHz6C-2" target="0cEmBsYHQ610rucGHz6C-3" edge="1">
          <mxGeometry relative="1" as="geometry">
            <Array as="points">
              <mxPoint x="190" y="240" />
              <mxPoint x="190" y="340" />
            </Array>
          </mxGeometry>
        </mxCell>
        <mxCell id="0cEmBsYHQ610rucGHz6C-2" value="B" style="ellipse;whiteSpace=wrap;html=1;aspect=fixed;fontSize=13;strokeWidth=1;" parent="7PVBfSDxAti9A3bYtXVE-1" vertex="1">
          <mxGeometry x="210" y="180" width="40" height="40" as="geometry" />
        </mxCell>
        <mxCell id="0cEmBsYHQ610rucGHz6C-12" value="1" style="edgeStyle=none;rounded=0;orthogonalLoop=1;jettySize=auto;html=1;fontSize=13;strokeColor=#000000;strokeWidth=1;" parent="7PVBfSDxAti9A3bYtXVE-1" source="0cEmBsYHQ610rucGHz6C-3" target="0cEmBsYHQ610rucGHz6C-5" edge="1">
          <mxGeometry relative="1" as="geometry" />
        </mxCell>
        <mxCell id="0cEmBsYHQ610rucGHz6C-15" value="3" style="edgeStyle=none;rounded=0;orthogonalLoop=1;jettySize=auto;html=1;fontSize=13;strokeColor=#000000;strokeWidth=1;" parent="7PVBfSDxAti9A3bYtXVE-1" source="0cEmBsYHQ610rucGHz6C-3" target="0cEmBsYHQ610rucGHz6C-4" edge="1">
          <mxGeometry relative="1" as="geometry" />
        </mxCell>
        <mxCell id="0cEmBsYHQ610rucGHz6C-16" value="-2" style="edgeStyle=none;rounded=0;orthogonalLoop=1;jettySize=auto;html=1;fontSize=13;strokeColor=#000000;strokeWidth=1;entryX=1;entryY=1;entryDx=0;entryDy=0;" parent="7PVBfSDxAti9A3bYtXVE-1" source="0cEmBsYHQ610rucGHz6C-3" target="0cEmBsYHQ610rucGHz6C-1" edge="1">
          <mxGeometry relative="1" as="geometry">
            <mxPoint x="310" y="70" as="targetPoint" />
            <Array as="points">
              <mxPoint x="320" y="350" />
              <mxPoint x="320" y="120" />
            </Array>
          </mxGeometry>
        </mxCell>
        <mxCell id="0cEmBsYHQ610rucGHz6C-17" value="1" style="edgeStyle=none;rounded=0;orthogonalLoop=1;jettySize=auto;html=1;entryX=0.5;entryY=1;entryDx=0;entryDy=0;fontSize=13;strokeColor=#000000;strokeWidth=1;" parent="7PVBfSDxAti9A3bYtXVE-1" source="0cEmBsYHQ610rucGHz6C-3" target="0cEmBsYHQ610rucGHz6C-2" edge="1">
          <mxGeometry relative="1" as="geometry">
            <Array as="points">
              <mxPoint x="260" y="340" />
              <mxPoint x="260" y="240" />
            </Array>
          </mxGeometry>
        </mxCell>
        <mxCell id="0cEmBsYHQ610rucGHz6C-3" value="C" style="ellipse;whiteSpace=wrap;html=1;aspect=fixed;fontSize=13;strokeWidth=1;" parent="7PVBfSDxAti9A3bYtXVE-1" vertex="1">
          <mxGeometry x="210" y="360" width="40" height="40" as="geometry" />
        </mxCell>
        <mxCell id="0cEmBsYHQ610rucGHz6C-13" value="1" style="edgeStyle=none;rounded=0;orthogonalLoop=1;jettySize=auto;html=1;entryX=0.233;entryY=1.1;entryDx=0;entryDy=0;entryPerimeter=0;fontSize=13;strokeColor=#000000;strokeWidth=1;" parent="7PVBfSDxAti9A3bYtXVE-1" source="0cEmBsYHQ610rucGHz6C-4" target="0cEmBsYHQ610rucGHz6C-5" edge="1">
          <mxGeometry relative="1" as="geometry" />
        </mxCell>
        <mxCell id="0cEmBsYHQ610rucGHz6C-4" value="D" style="ellipse;whiteSpace=wrap;html=1;aspect=fixed;fontSize=13;strokeWidth=1;" parent="7PVBfSDxAti9A3bYtXVE-1" vertex="1">
          <mxGeometry x="210" y="510" width="40" height="40" as="geometry" />
        </mxCell>
        <mxCell id="0cEmBsYHQ610rucGHz6C-5" value="P" style="ellipse;whiteSpace=wrap;html=1;aspect=fixed;fontSize=13;strokeWidth=1;" parent="7PVBfSDxAti9A3bYtXVE-1" vertex="1">
          <mxGeometry x="370" y="270" width="40" height="40" as="geometry" />
        </mxCell>
        <mxCell id="0cEmBsYHQ610rucGHz6C-19" value="0" style="edgeStyle=none;rounded=0;orthogonalLoop=1;jettySize=auto;html=1;entryX=0;entryY=1;entryDx=0;entryDy=0;fontSize=13;strokeColor=#000000;strokeWidth=2;" parent="7PVBfSDxAti9A3bYtXVE-1" source="0cEmBsYHQ610rucGHz6C-23" target="0cEmBsYHQ610rucGHz6C-26" edge="1">
          <mxGeometry relative="1" as="geometry" />
        </mxCell>
        <mxCell id="0cEmBsYHQ610rucGHz6C-20" value="0" style="edgeStyle=none;rounded=0;orthogonalLoop=1;jettySize=auto;html=1;entryX=0;entryY=1;entryDx=0;entryDy=0;fontSize=13;strokeColor=#000000;strokeWidth=1;" parent="7PVBfSDxAti9A3bYtXVE-1" source="0cEmBsYHQ610rucGHz6C-23" target="0cEmBsYHQ610rucGHz6C-29" edge="1">
          <mxGeometry relative="1" as="geometry" />
        </mxCell>
        <mxCell id="0cEmBsYHQ610rucGHz6C-21" value="0" style="edgeStyle=none;rounded=0;orthogonalLoop=1;jettySize=auto;html=1;entryX=0;entryY=0;entryDx=0;entryDy=0;fontSize=13;strokeColor=#000000;strokeWidth=1;" parent="7PVBfSDxAti9A3bYtXVE-1" source="0cEmBsYHQ610rucGHz6C-23" target="0cEmBsYHQ610rucGHz6C-34" edge="1">
          <mxGeometry relative="1" as="geometry" />
        </mxCell>
        <mxCell id="0cEmBsYHQ610rucGHz6C-22" value="0" style="edgeStyle=none;rounded=0;orthogonalLoop=1;jettySize=auto;html=1;entryX=0;entryY=0;entryDx=0;entryDy=0;fontSize=13;strokeColor=#000000;strokeWidth=1;" parent="7PVBfSDxAti9A3bYtXVE-1" source="0cEmBsYHQ610rucGHz6C-23" target="0cEmBsYHQ610rucGHz6C-36" edge="1">
          <mxGeometry relative="1" as="geometry" />
        </mxCell>
        <mxCell id="0cEmBsYHQ610rucGHz6C-23" value="S" style="ellipse;whiteSpace=wrap;html=1;aspect=fixed;fontSize=13;strokeWidth=2;" parent="7PVBfSDxAti9A3bYtXVE-1" vertex="1">
          <mxGeometry x="440" y="270" width="40" height="40" as="geometry" />
        </mxCell>
        <mxCell id="0cEmBsYHQ610rucGHz6C-24" value="-1" style="edgeStyle=none;rounded=0;orthogonalLoop=1;jettySize=auto;html=1;entryX=0;entryY=0;entryDx=0;entryDy=0;fontSize=13;strokeColor=#000000;strokeWidth=1;" parent="7PVBfSDxAti9A3bYtXVE-1" source="0cEmBsYHQ610rucGHz6C-26" target="0cEmBsYHQ610rucGHz6C-37" edge="1">
          <mxGeometry relative="1" as="geometry" />
        </mxCell>
        <mxCell id="0cEmBsYHQ610rucGHz6C-25" value="-7" style="edgeStyle=none;rounded=0;orthogonalLoop=1;jettySize=auto;html=1;fontSize=13;strokeColor=#000000;strokeWidth=2;" parent="7PVBfSDxAti9A3bYtXVE-1" source="0cEmBsYHQ610rucGHz6C-26" target="0cEmBsYHQ610rucGHz6C-36" edge="1">
          <mxGeometry relative="1" as="geometry">
            <Array as="points">
              <mxPoint x="530" y="130" />
              <mxPoint x="530" y="470" />
            </Array>
          </mxGeometry>
        </mxCell>
        <mxCell id="0cEmBsYHQ610rucGHz6C-26" value="A" style="ellipse;whiteSpace=wrap;html=1;aspect=fixed;fontSize=13;strokeWidth=2;" parent="7PVBfSDxAti9A3bYtXVE-1" vertex="1">
          <mxGeometry x="600" y="50" width="40" height="40" as="geometry" />
        </mxCell>
        <mxCell id="0cEmBsYHQ610rucGHz6C-27" value="-1" style="edgeStyle=none;rounded=0;orthogonalLoop=1;jettySize=auto;html=1;entryX=0;entryY=0.5;entryDx=0;entryDy=0;fontSize=13;strokeColor=#000000;strokeWidth=1;" parent="7PVBfSDxAti9A3bYtXVE-1" source="0cEmBsYHQ610rucGHz6C-29" target="0cEmBsYHQ610rucGHz6C-37" edge="1">
          <mxGeometry relative="1" as="geometry" />
        </mxCell>
        <mxCell id="0cEmBsYHQ610rucGHz6C-28" value="1" style="edgeStyle=none;rounded=0;orthogonalLoop=1;jettySize=auto;html=1;fontSize=13;strokeColor=#000000;strokeWidth=1;" parent="7PVBfSDxAti9A3bYtXVE-1" source="0cEmBsYHQ610rucGHz6C-29" target="0cEmBsYHQ610rucGHz6C-34" edge="1">
          <mxGeometry relative="1" as="geometry">
            <Array as="points">
              <mxPoint x="580" y="240" />
              <mxPoint x="580" y="340" />
            </Array>
          </mxGeometry>
        </mxCell>
        <mxCell id="0cEmBsYHQ610rucGHz6C-29" value="B" style="ellipse;whiteSpace=wrap;html=1;aspect=fixed;fontSize=13;strokeWidth=1;" parent="7PVBfSDxAti9A3bYtXVE-1" vertex="1">
          <mxGeometry x="600" y="180" width="40" height="40" as="geometry" />
        </mxCell>
        <mxCell id="0cEmBsYHQ610rucGHz6C-30" value="-1" style="edgeStyle=none;rounded=0;orthogonalLoop=1;jettySize=auto;html=1;fontSize=13;strokeColor=#000000;strokeWidth=1;" parent="7PVBfSDxAti9A3bYtXVE-1" source="0cEmBsYHQ610rucGHz6C-34" target="0cEmBsYHQ610rucGHz6C-37" edge="1">
          <mxGeometry relative="1" as="geometry" />
        </mxCell>
        <mxCell id="0cEmBsYHQ610rucGHz6C-31" value="-3" style="edgeStyle=none;rounded=0;orthogonalLoop=1;jettySize=auto;html=1;fontSize=13;strokeColor=#000000;strokeWidth=1;" parent="7PVBfSDxAti9A3bYtXVE-1" source="0cEmBsYHQ610rucGHz6C-34" target="0cEmBsYHQ610rucGHz6C-36" edge="1">
          <mxGeometry relative="1" as="geometry" />
        </mxCell>
        <mxCell id="0cEmBsYHQ610rucGHz6C-32" value="2" style="edgeStyle=none;rounded=0;orthogonalLoop=1;jettySize=auto;html=1;fontSize=13;strokeColor=#000000;strokeWidth=1;entryX=1;entryY=1;entryDx=0;entryDy=0;" parent="7PVBfSDxAti9A3bYtXVE-1" source="0cEmBsYHQ610rucGHz6C-34" target="0cEmBsYHQ610rucGHz6C-26" edge="1">
          <mxGeometry relative="1" as="geometry">
            <mxPoint x="700" y="70" as="targetPoint" />
            <Array as="points">
              <mxPoint x="710" y="310" />
              <mxPoint x="710" y="120" />
            </Array>
          </mxGeometry>
        </mxCell>
        <mxCell id="0cEmBsYHQ610rucGHz6C-33" value="-1" style="edgeStyle=none;rounded=0;orthogonalLoop=1;jettySize=auto;html=1;entryX=0.5;entryY=1;entryDx=0;entryDy=0;fontSize=13;strokeColor=#000000;strokeWidth=1;" parent="7PVBfSDxAti9A3bYtXVE-1" source="0cEmBsYHQ610rucGHz6C-34" target="0cEmBsYHQ610rucGHz6C-29" edge="1">
          <mxGeometry relative="1" as="geometry">
            <Array as="points">
              <mxPoint x="650" y="340" />
              <mxPoint x="650" y="240" />
            </Array>
          </mxGeometry>
        </mxCell>
        <mxCell id="0cEmBsYHQ610rucGHz6C-34" value="C" style="ellipse;whiteSpace=wrap;html=1;aspect=fixed;fontSize=13;strokeWidth=1;" parent="7PVBfSDxAti9A3bYtXVE-1" vertex="1">
          <mxGeometry x="600" y="360" width="40" height="40" as="geometry" />
        </mxCell>
        <mxCell id="0cEmBsYHQ610rucGHz6C-35" value="-1" style="edgeStyle=none;rounded=0;orthogonalLoop=1;jettySize=auto;html=1;entryX=0.233;entryY=1.1;entryDx=0;entryDy=0;entryPerimeter=0;fontSize=13;strokeColor=#000000;strokeWidth=2;" parent="7PVBfSDxAti9A3bYtXVE-1" source="0cEmBsYHQ610rucGHz6C-36" target="0cEmBsYHQ610rucGHz6C-37" edge="1">
          <mxGeometry relative="1" as="geometry" />
        </mxCell>
        <mxCell id="0cEmBsYHQ610rucGHz6C-36" value="D" style="ellipse;whiteSpace=wrap;html=1;aspect=fixed;fontSize=13;strokeWidth=2;" parent="7PVBfSDxAti9A3bYtXVE-1" vertex="1">
          <mxGeometry x="600" y="510" width="40" height="40" as="geometry" />
        </mxCell>
        <mxCell id="0cEmBsYHQ610rucGHz6C-37" value="P" style="ellipse;whiteSpace=wrap;html=1;aspect=fixed;fontSize=13;strokeWidth=2;" parent="7PVBfSDxAti9A3bYtXVE-1" vertex="1">
          <mxGeometry x="760" y="270" width="40" height="40" as="geometry" />
        </mxCell>
      </root>
    </mxGraphModel>
  </diagram>
</mxfile>
